<?xml version="1.0" encoding="utf-8"?>
<!-- Generator: Adobe Illustrator 24.2.0, SVG Export Plug-In . SVG Version: 6.00 Build 0)  -->
<svg version="1.1" id="Layer_1" xmlns="http://www.w3.org/2000/svg" xmlns:xlink="http://www.w3.org/1999/xlink" x="0px" y="0px"
	 viewBox="0 0 296.49 342.01" style="enable-background:new 0 0 296.49 342.01;" xml:space="preserve">
<style type="text/css">
	.st0{fill:#0A8074;}
	.st1{fill:#16A89F;}
	.st2{fill:#24D2C1;}
	.st3{fill:#535359;}
	.st4{fill:#121214;}
	.st5{fill:#303033;}
	.st6{fill:#E6DAB0;}
	.st7{fill:#BCBEC0;}
	.st8{fill:#939598;}
	.st9{opacity:0.3;}
	.st10{fill:#BA6000;}
	.st11{fill:#FF8400;}
	.st12{opacity:0.3;fill:#121214;}
	.st13{fill:#175766;}
	.st14{fill:#71C5D8;}
	.st15{fill:#2C7A99;}
	.st16{fill:#A7A9AC;}
	.st17{fill:#FFFFFF;}
	.st18{fill:#3576AB;}
	.st19{fill:#BDAF83;}
	.st20{fill:#FF4D75;}
	.st21{fill:#0F2034;}
	.st22{fill:#1D374E;}
	.st23{fill:#075951;}
	.st24{fill:#FF9D26;}
</style>
<g>
	<g>
		<g>
			<polygon class="st0" points="86.61,273.77 86.61,272.96 148.53,260.12 148.53,260.93 106.45,285.23 			"/>
			<polygon class="st1" points="86.61,272.96 128.69,248.66 148.53,260.12 106.45,284.42 			"/>
			<polygon class="st0" points="93.97,275.77 96.26,274.45 98.93,275.99 96.65,277.31 			"/>
			<polygon class="st2" points="104.4,271.45 114,265.91 125.24,272.39 115.63,277.94 			"/>
			<polygon class="st2" points="126.13,259.27 135.72,253.73 146.96,260.21 137.35,265.75 			"/>
			<g>
				<polygon class="st3" points="100.28,278.64 102.24,277.51 102.23,277.98 100.28,279.11 				"/>
				<polygon class="st4" points="98,277.32 100.2,278.17 100.28,278.64 100.28,279.11 97.99,277.79 				"/>
				<polygon class="st5" points="98,277.32 99.95,276.19 102.24,277.51 100.28,278.64 				"/>
				<polygon class="st6" points="99.73,277.89 100.1,277.68 99.12,277.11 98.75,277.33 				"/>
			</g>
			<g>
				<polygon class="st3" points="100,273.04 103.11,271.27 103.09,271.74 99.99,273.51 				"/>
				<polygon class="st4" points="97.71,271.72 99.92,272.58 100,273.04 99.99,273.51 97.71,272.2 				"/>
				<polygon class="st5" points="97.71,271.72 100.81,269.95 103.11,271.27 100,273.04 				"/>
				<polygon class="st6" points="99.45,272.3 99.82,272.09 98.84,271.52 98.46,271.74 				"/>
			</g>
			<g>
				<polygon class="st3" points="124.82,257.85 126.78,256.73 126.77,257.19 124.81,258.33 				"/>
				<polygon class="st4" points="122.53,256.53 124.73,257.39 124.82,257.85 124.81,258.33 122.52,257.01 				"/>
				<polygon class="st5" points="122.53,256.53 124.49,255.4 126.78,256.73 124.82,257.85 				"/>
				<polygon class="st6" points="124.26,257.11 124.64,256.89 123.65,256.33 123.28,256.54 				"/>
			</g>
			<g>
				<polygon class="st3" points="93.28,274.75 96.48,272.9 96.47,273.67 93.27,275.52 				"/>
				<polygon class="st7" points="93.28,275.16 96.48,273.31 96.47,273.67 93.27,275.52 				"/>
				<polygon class="st4" points="89.54,272.58 93.15,273.98 93.28,274.75 93.27,275.52 89.53,273.35 				"/>
				<polygon class="st8" points="89.53,273 93.28,275.16 93.27,275.52 89.53,273.35 				"/>
				<polygon class="st5" points="89.54,272.58 92.74,270.73 96.48,272.9 93.28,274.75 				"/>
				<polygon class="st6" points="93.36,274.09 94.41,273.49 91.67,271.91 90.62,272.51 				"/>
			</g>
			<g>
				<polygon class="st3" points="113.43,262.47 121.09,258.04 121.09,258.81 113.41,263.24 				"/>
				<polygon class="st7" points="113.42,262.88 121.09,258.45 121.09,258.81 113.41,263.24 				"/>
				<polygon class="st4" points="109.68,260.3 113.29,261.7 113.43,262.47 113.41,263.24 109.67,261.08 				"/>
				<polygon class="st8" points="109.68,260.72 113.42,262.88 113.41,263.24 109.67,261.08 				"/>
				<polygon class="st5" points="109.68,260.3 117.35,255.87 121.09,258.04 113.43,262.47 				"/>
				<polygon class="st6" points="113.5,261.81 114.56,261.21 111.81,259.63 110.76,260.23 				"/>
			</g>
			<g>
				<polygon class="st5" points="110.69,279.87 113.89,278.02 113.87,278.79 110.67,280.64 				"/>
				<polygon points="106.93,277.7 110.54,279.1 110.69,279.87 110.67,280.64 106.93,278.48 				"/>
				<polygon class="st4" points="106.93,277.7 110.14,275.86 113.89,278.02 110.69,279.87 				"/>
				<polygon class="st6" points="110.69,277.86 111.74,277.25 110.17,276.35 109.12,276.95 				"/>
			</g>
			<g>
				<polygon class="st5" points="104.17,277.01 108.65,274.42 108.62,275.5 104.16,278.09 				"/>
				<polygon points="98.94,273.98 103.98,275.94 104.17,277.01 104.16,278.09 98.93,275.06 				"/>
				<polygon class="st4" points="98.94,273.98 103.42,271.4 108.65,274.42 104.17,277.01 				"/>
			</g>
			<g>
				<polygon class="st5" points="125.03,265.31 129.5,262.73 129.48,263.81 125.01,266.39 				"/>
				<polygon points="119.79,262.29 124.83,264.24 125.03,265.31 125.01,266.39 119.78,263.37 				"/>
				<polygon class="st4" points="119.79,262.29 124.27,259.71 129.5,262.73 125.03,265.31 				"/>
			</g>
			<g>
				<polygon class="st5" points="106.96,267.38 110.08,265.58 110.07,266.33 106.95,268.13 				"/>
				<polygon points="103.31,265.27 106.83,266.63 106.96,267.38 106.95,268.13 103.3,266.03 				"/>
				<polygon class="st4" points="103.31,265.27 106.43,263.47 110.08,265.58 106.96,267.38 				"/>
			</g>
			<g>
				<polygon class="st5" points="127.3,270.92 130.5,269.07 130.49,269.84 127.28,271.69 				"/>
				<polygon points="123.55,268.76 127.16,270.15 127.3,270.92 127.28,271.69 123.54,269.53 				"/>
				<polygon class="st4" points="123.55,268.76 126.75,266.91 130.5,269.07 127.3,270.92 				"/>
				<polygon class="st6" points="127.31,268.91 128.36,268.3 126.78,267.39 125.73,268.01 				"/>
			</g>
			<g>
				<polygon class="st5" points="106.69,281.44 108.65,280.32 108.64,280.79 106.69,281.92 				"/>
				<polygon points="102.99,279.3 106.09,280.69 106.69,281.44 106.69,281.92 102.97,279.78 				"/>
				<polygon class="st4" points="102.99,279.3 104.94,278.17 108.65,280.32 106.69,281.44 				"/>
			</g>
			<g>
				<polygon class="st5" points="130.44,252.44 132.4,251.31 132.39,251.79 130.44,252.91 				"/>
				<polygon points="126.74,250.3 129.85,251.68 130.44,252.44 130.44,252.91 126.73,250.77 				"/>
				<polygon class="st4" points="126.74,250.3 128.69,249.17 132.4,251.31 130.44,252.44 				"/>
			</g>
			<g>
				<polygon class="st5" points="96.98,270.84 93.97,269.11 93.99,269.83 96.99,271.57 				"/>
				<polygon points="102.67,267.56 97.9,269.68 96.98,270.84 96.99,271.57 102.69,268.28 				"/>
				<polygon class="st4" points="102.67,267.56 99.67,265.82 93.97,269.11 96.98,270.84 				"/>
			</g>
			<g>
				<polygon class="st5" points="126.98,255.08 130.19,253.23 130.17,254.01 126.97,255.86 				"/>
				<polygon points="123.24,252.92 126.84,254.32 126.98,255.08 126.97,255.86 123.22,253.69 				"/>
				<polygon class="st4" points="123.24,252.92 126.44,251.07 130.19,253.23 126.98,255.08 				"/>
				<polygon class="st6" points="126.99,253.07 128.04,252.47 126.47,251.56 125.42,252.16 				"/>
			</g>
			<g>
				<polygon class="st5" points="132.29,268.41 134.25,267.28 134.24,267.75 132.29,268.88 				"/>
				<polygon points="128.58,266.27 131.7,267.65 132.29,268.41 132.29,268.88 128.58,266.74 				"/>
				<polygon class="st4" points="128.58,266.27 130.54,265.13 134.25,267.28 132.29,268.41 				"/>
			</g>
			<g>
				<polygon class="st5" points="134.84,266.91 136.8,265.78 136.79,266.26 134.83,267.38 				"/>
				<polygon points="131.14,264.77 134.25,266.15 134.84,266.91 134.83,267.38 131.12,265.25 				"/>
				<polygon class="st4" points="131.14,264.77 133.09,263.64 136.8,265.78 134.84,266.91 				"/>
			</g>
			<polygon class="st0" points="100.91,280.21 101.83,279.68 104.72,281.35 103.8,281.88 			"/>
			<g>
				<polygon class="st3" points="115.52,274.86 122.86,270.62 122.83,272.39 115.49,276.62 				"/>
				<polygon class="st7" points="115.51,275.81 122.85,271.57 122.83,272.39 115.49,276.62 				"/>
				<polygon class="st4" points="106.93,269.9 115.2,273.1 115.52,274.86 115.49,276.62 106.91,271.66 				"/>
				<polygon class="st8" points="106.92,270.84 115.51,275.81 115.49,276.62 106.91,271.66 				"/>
				<polygon class="st5" points="106.93,269.9 114.28,265.66 122.86,270.62 115.52,274.86 				"/>
				<polygon class="st3" points="116.7,272.77 119.12,271.38 112.83,267.75 110.41,269.13 				"/>
			</g>
			<g>
				<polygon class="st3" points="137.43,262.92 144.77,258.68 144.74,260.45 137.4,264.69 				"/>
				<polygon class="st7" points="137.41,263.87 144.76,259.63 144.74,260.45 137.4,264.69 				"/>
				<polygon class="st4" points="128.84,257.97 137.11,261.17 137.43,262.92 137.4,264.69 128.82,259.73 				"/>
				<polygon class="st8" points="128.83,258.91 137.41,263.87 137.4,264.69 128.82,259.73 				"/>
				<polygon class="st5" points="128.84,257.97 136.18,253.73 144.77,258.68 137.43,262.92 				"/>
			</g>
			<g>
				<path class="st9" d="M116.14,265.06c0.28,0.16,0.73,0.16,1,0c0.28-0.16,0.28-0.42,0-0.58c-0.27-0.16-0.73-0.16-1,0
					C115.86,264.65,115.86,264.9,116.14,265.06z"/>
				<path class="st10" d="M117.21,263.38v1.36l0,0c0,0.08-0.06,0.17-0.17,0.23c-0.22,0.13-0.59,0.13-0.81,0
					c-0.11-0.07-0.17-0.15-0.17-0.23l0,0v-1.36H117.21z"/>
				<path class="st11" d="M116.23,263.61c0.22,0.13,0.59,0.13,0.81,0c0.22-0.13,0.22-0.33,0-0.46c-0.22-0.13-0.59-0.13-0.81,0
					C116,263.27,116,263.48,116.23,263.61z"/>
			</g>
			<g>
				<path class="st9" d="M117.48,265.79c0.28,0.16,0.73,0.16,1.01,0c0.28-0.16,0.28-0.42,0-0.58c-0.27-0.16-0.73-0.16-1.01,0
					C117.21,265.37,117.21,265.63,117.48,265.79z"/>
				<path class="st10" d="M118.55,264.1v1.36l0,0c0,0.09-0.06,0.17-0.17,0.24c-0.22,0.13-0.59,0.13-0.81,0
					c-0.11-0.06-0.17-0.15-0.17-0.24l0,0v-1.36H118.55z"/>
				<path class="st11" d="M117.57,264.33c0.22,0.13,0.58,0.13,0.81,0c0.22-0.12,0.22-0.33,0-0.46c-0.22-0.13-0.59-0.13-0.81,0
					C117.35,264,117.35,264.21,117.57,264.33z"/>
			</g>
			<g>
				<path class="st9" d="M118.91,266.64c0.27,0.16,0.73,0.16,1,0c0.28-0.16,0.28-0.42,0-0.58c-0.28-0.16-0.73-0.16-1,0
					C118.63,266.23,118.63,266.48,118.91,266.64z"/>
				<path class="st10" d="M119.97,264.96v1.36l0,0c0,0.08-0.06,0.17-0.17,0.23c-0.22,0.13-0.58,0.13-0.81,0
					c-0.11-0.06-0.17-0.15-0.17-0.23l0,0v-1.36H119.97z"/>
				<path class="st11" d="M119,265.19c0.22,0.13,0.58,0.13,0.81,0c0.23-0.13,0.23-0.34,0-0.46c-0.22-0.13-0.58-0.13-0.81,0
					C118.77,264.85,118.77,265.06,119,265.19z"/>
			</g>
			<g>
				<path class="st9" d="M120.25,267.37c0.28,0.16,0.73,0.16,1.01,0c0.28-0.16,0.28-0.42,0-0.58c-0.28-0.16-0.73-0.16-1.01,0
					C119.97,266.95,119.97,267.21,120.25,267.37z"/>
				<path class="st10" d="M121.32,265.68v1.36l0,0c0,0.09-0.06,0.17-0.17,0.23c-0.22,0.13-0.58,0.13-0.81,0
					c-0.11-0.06-0.17-0.15-0.17-0.23l0,0v-1.36H121.32z"/>
				<path class="st11" d="M120.34,265.92c0.23,0.13,0.59,0.13,0.81,0c0.23-0.13,0.23-0.34,0-0.47c-0.22-0.13-0.58-0.13-0.81,0
					C120.12,265.58,120.12,265.79,120.34,265.92z"/>
			</g>
			<g>
				<path class="st9" d="M131.62,253.46c0.28,0.16,0.73,0.16,1.01,0c0.27-0.16,0.27-0.42,0-0.58c-0.28-0.16-0.73-0.16-1.01,0
					C131.35,253.04,131.35,253.3,131.62,253.46z"/>
				<path class="st10" d="M132.69,251.78v1.36l0,0c0,0.08-0.06,0.17-0.17,0.23c-0.22,0.13-0.58,0.13-0.81,0
					c-0.11-0.06-0.17-0.15-0.17-0.23l0,0v-1.36H132.69z"/>
				<path class="st11" d="M131.71,252.01c0.22,0.13,0.58,0.13,0.81,0c0.22-0.13,0.22-0.33,0-0.46c-0.22-0.13-0.58-0.13-0.81,0
					C131.49,251.67,131.49,251.88,131.71,252.01z"/>
			</g>
			<g>
				<path class="st9" d="M132.97,254.19c0.28,0.16,0.73,0.16,1,0c0.28-0.16,0.28-0.42,0-0.58c-0.28-0.16-0.73-0.16-1,0
					C132.69,253.77,132.69,254.03,132.97,254.19z"/>
				<path class="st10" d="M134.03,252.5v1.37l0,0c0,0.08-0.05,0.16-0.17,0.23c-0.22,0.13-0.59,0.13-0.81,0
					c-0.11-0.06-0.16-0.15-0.16-0.23l0,0v-1.37H134.03z"/>
				<path class="st11" d="M133.06,252.74c0.22,0.13,0.59,0.13,0.81,0c0.23-0.13,0.23-0.34,0-0.47c-0.22-0.13-0.59-0.13-0.81,0
					C132.84,252.4,132.84,252.61,133.06,252.74z"/>
			</g>
			<g>
				<path class="st9" d="M103.23,269.66c0.27,0.16,0.73,0.16,1.01,0c0.28-0.16,0.28-0.42,0-0.58c-0.28-0.16-0.73-0.16-1.01,0
					C102.95,269.24,102.95,269.5,103.23,269.66z"/>
				<path class="st10" d="M104.29,267.97v1.36l0,0c0,0.08-0.06,0.17-0.17,0.24c-0.22,0.12-0.59,0.12-0.81,0
					c-0.11-0.07-0.17-0.15-0.17-0.24l0,0v-1.36H104.29z"/>
				<path class="st11" d="M103.32,268.2c0.22,0.13,0.58,0.13,0.81,0c0.22-0.13,0.22-0.33,0-0.46c-0.22-0.13-0.59-0.13-0.81,0
					C103.09,267.87,103.09,268.08,103.32,268.2z"/>
			</g>
			<g>
				<path class="st9" d="M104.58,270.38c0.28,0.16,0.73,0.16,1,0c0.28-0.16,0.28-0.42,0-0.58c-0.28-0.16-0.73-0.16-1,0
					C104.29,269.96,104.29,270.22,104.58,270.38z"/>
				<path class="st10" d="M105.64,268.7v1.36l0,0c0,0.09-0.06,0.17-0.17,0.24c-0.22,0.13-0.59,0.13-0.81,0
					c-0.11-0.06-0.17-0.15-0.17-0.24l0,0v-1.36H105.64z"/>
				<path class="st11" d="M104.66,268.93c0.22,0.13,0.58,0.13,0.81,0c0.22-0.13,0.22-0.34,0-0.47c-0.22-0.13-0.59-0.13-0.81,0
					C104.44,268.59,104.44,268.8,104.66,268.93z"/>
			</g>
			<g>
				<path class="st9" d="M106.49,262.2c0.27,0.16,0.73,0.16,1,0c0.28-0.16,0.28-0.42,0-0.58c-0.27-0.16-0.73-0.16-1,0
					C106.22,261.78,106.22,262.04,106.49,262.2z"/>
				<path class="st10" d="M107.56,260.52v1.36l0,0c0,0.08-0.06,0.17-0.17,0.23c-0.23,0.13-0.59,0.13-0.81,0
					c-0.11-0.07-0.17-0.15-0.17-0.23l0,0v-1.36H107.56z"/>
				<path class="st11" d="M106.58,260.75c0.23,0.13,0.59,0.13,0.81,0c0.22-0.13,0.22-0.34,0-0.47c-0.23-0.13-0.59-0.13-0.81,0
					C106.36,260.41,106.36,260.62,106.58,260.75z"/>
			</g>
			<g>
				<path class="st9" d="M107.84,262.93c0.28,0.16,0.73,0.16,1,0c0.28-0.17,0.28-0.42,0-0.58c-0.27-0.16-0.72-0.16-1,0
					C107.56,262.51,107.56,262.77,107.84,262.93z"/>
				<path class="st10" d="M108.91,261.24v1.36l0,0c0,0.08-0.06,0.17-0.17,0.23c-0.22,0.13-0.59,0.13-0.81,0
					c-0.11-0.07-0.17-0.15-0.17-0.23l0,0v-1.36H108.91z"/>
				<path class="st11" d="M107.93,261.48c0.23,0.13,0.58,0.13,0.81,0c0.23-0.13,0.23-0.34,0-0.47c-0.22-0.13-0.59-0.13-0.81,0
					C107.7,261.14,107.71,261.35,107.93,261.48z"/>
			</g>
			<g>
				<path class="st9" d="M118.51,254.89c0.28,0.16,0.73,0.16,1,0c0.28-0.16,0.28-0.42,0-0.58c-0.27-0.16-0.72-0.16-1,0
					C118.23,254.47,118.23,254.73,118.51,254.89z"/>
				<path class="st10" d="M119.58,253.21v1.36l0,0c0,0.08-0.06,0.17-0.17,0.23c-0.23,0.13-0.59,0.13-0.81,0
					c-0.11-0.07-0.17-0.15-0.17-0.23l0,0v-1.36H119.58z"/>
				<path class="st11" d="M118.6,253.44c0.22,0.13,0.58,0.13,0.81,0c0.22-0.13,0.22-0.34,0-0.47c-0.23-0.13-0.59-0.13-0.81,0
					C118.38,253.1,118.38,253.31,118.6,253.44z"/>
			</g>
			<g>
				<path class="st9" d="M119.86,255.62c0.28,0.16,0.73,0.16,1,0c0.28-0.16,0.28-0.42,0-0.58c-0.27-0.16-0.73-0.16-1,0
					C119.58,255.2,119.58,255.46,119.86,255.62z"/>
				<path class="st10" d="M120.92,253.93v1.36l0,0c0,0.08-0.06,0.16-0.17,0.23c-0.22,0.13-0.59,0.13-0.81,0
					c-0.11-0.07-0.17-0.15-0.17-0.23l0,0v-1.36H120.92z"/>
				<path class="st11" d="M119.95,254.16c0.22,0.13,0.59,0.13,0.81,0c0.22-0.13,0.22-0.34,0-0.46c-0.22-0.13-0.59-0.13-0.81,0
					C119.72,253.83,119.72,254.04,119.95,254.16z"/>
			</g>
			<g>
				<path class="st8" d="M112.57,288.18c0-1.14-0.8-2.52-1.78-3.08L85.52,270.5l-0.58,0.34l25.85,18.36
					c0.27,0.16,0.52,0.23,0.75,0.24l0.05,0.16l0.6-0.39C112.42,289.01,112.57,288.66,112.57,288.18z"/>
				<path class="st7" d="M110.21,285.43l-25.27-14.59v4.11l25.27,14.59c0.98,0.57,1.78,0.11,1.78-1.03
					C111.99,287.38,111.19,286,110.21,285.43z"/>
			</g>
			<g>
				<polygon class="st4" points="97.5,279.41 97.51,281.67 97.91,281.43 97.91,279.17 				"/>
				<polygon class="st3" points="90.96,275.62 93.71,277.63 97.5,279.41 97.91,279.17 91.36,275.38 				"/>
				<polygon class="st5" points="90.96,275.62 90.95,277.89 97.51,281.67 97.5,279.41 				"/>
				<polygon class="st4" points="91.61,276.58 91.61,277.66 96.85,280.7 96.85,279.62 				"/>
			</g>
			<g>
				<polygon class="st4" points="103.76,283.02 103.76,285.27 104.16,285.04 104.16,282.78 				"/>
				<polygon class="st3" points="99.37,280.48 102.12,282.48 103.76,283.02 104.16,282.78 99.77,280.24 				"/>
				<polygon class="st5" points="99.37,280.48 99.36,282.74 103.76,285.27 103.76,283.02 				"/>
				<polygon class="st4" points="100.01,281.43 100.01,282.52 103.11,284.31 103.11,283.23 				"/>
			</g>
		</g>
	</g>
	<g>
		<polygon points="247.42,233.29 148.52,175.78 148.52,46.38 247.42,103.45 		"/>
		<polygon class="st12" points="296.49,244.48 152.21,160.28 83.1,200.03 227.39,284.22 		"/>
		<polygon class="st3" points="92.1,198.89 223.72,275.75 256.03,258.04 253.14,223.54 151.88,165.08 115.45,173.9 		"/>
		<polygon class="st3" points="153.65,120.73 99.35,152.08 101.21,153.15 155.51,121.8 		"/>
		<path d="M90.82,35.31v165.08l61.06-35.31V0L90.82,35.31z M149.33,124.75l-48.12,27.78V141.8l48.12-27.78V124.75z"/>
		<g>
			<polygon class="st0" points="182.33,87.2 182.33,87.2 147.05,66.83 145.82,67.54 182.33,91.7 216.34,194.69 217.59,193.96 
				217.59,107.56 			"/>
			<polygon class="st1" points="145.82,67.54 145.82,153.96 216.34,194.69 216.34,108.27 			"/>
			<polygon class="st0" points="156.69,76.39 156.69,81.08 161.43,83.81 161.43,79.13 			"/>
			<polygon class="st2" points="159.3,96.28 159.3,115.99 179.27,127.52 179.27,107.81 			"/>
			<polygon class="st2" points="159.87,140.57 159.85,160.28 179.83,171.81 179.83,152.09 			"/>
			<g>
				<polygon class="st3" points="166.7,83.55 166.7,87.57 167.42,87.14 167.42,83.13 				"/>
				<polygon class="st4" points="162.64,81.21 165.92,83.82 166.7,83.55 167.42,83.13 163.35,80.77 				"/>
				<polygon class="st5" points="162.64,81.21 162.64,85.22 166.7,87.57 166.7,83.55 				"/>
				<polygon class="st6" points="165.07,83.35 165.07,84.12 163.32,83.11 163.32,82.34 				"/>
			</g>
			<g>
				<polygon class="st3" points="157.83,88.09 157.88,94.44 158.57,94.01 158.55,87.67 				"/>
				<polygon class="st4" points="153.76,85.74 157.04,88.37 157.83,88.09 158.55,87.67 154.49,85.31 				"/>
				<polygon class="st5" points="153.76,85.74 153.8,92.08 157.88,94.44 157.83,88.09 				"/>
				<polygon class="st6" points="156.21,87.89 156.21,88.67 154.47,87.66 154.47,86.88 				"/>
			</g>
			<g>
				<polygon class="st3" points="156.51,139.81 156.51,143.82 157.24,143.4 157.24,139.38 				"/>
				<polygon class="st4" points="152.44,137.46 155.73,140.1 156.51,139.81 157.24,139.38 153.16,137.03 				"/>
				<polygon class="st5" points="152.44,137.46 152.44,141.48 156.51,143.82 156.51,139.81 				"/>
				<polygon class="st6" points="154.87,139.61 154.87,140.38 153.11,139.38 153.11,138.6 				"/>
			</g>
			<g>
				<polygon class="st3" points="154.49,76.23 154.49,82.8 155.67,82.11 155.67,75.53 				"/>
				<polygon class="st7" points="155.13,75.85 155.13,82.43 155.67,82.11 155.67,75.53 				"/>
				<polygon class="st4" points="147.83,72.38 153.2,76.7 154.49,76.23 155.67,75.53 149.01,71.69 				"/>
				<polygon class="st8" points="148.45,72.01 155.13,75.85 155.67,75.53 149.01,71.69 				"/>
				<polygon class="st5" points="147.83,72.38 147.83,78.97 154.49,82.8 154.49,76.23 				"/>
				<polygon class="st6" points="153.54,76.93 153.54,79.08 148.66,76.27 148.66,74.11 				"/>
			</g>
			<g>
				<polygon class="st3" points="153.5,130.25 153.48,135.22 154.65,134.52 154.67,129.54 				"/>
				<polygon class="st7" points="154.12,129.87 154.12,134.85 154.65,134.52 154.67,129.54 				"/>
				<polygon class="st4" points="146.82,126.4 152.19,130.71 153.5,130.25 154.67,129.54 148,125.69 				"/>
				<polygon class="st8" points="147.45,126.02 154.12,129.87 154.67,129.54 148,125.69 				"/>
				<polygon class="st5" points="146.82,126.4 146.82,131.38 153.48,135.22 153.5,130.25 				"/>
				<polygon class="st6" points="152.56,130.93 152.56,133.1 147.67,130.28 147.67,128.11 				"/>
			</g>
			<g>
				<polygon class="st5" points="177.84,98.46 177.86,105.05 179.01,104.33 179.04,97.77 				"/>
				<polygon points="171.19,94.62 176.56,98.94 177.84,98.46 179.04,97.77 172.36,93.92 				"/>
				<polygon class="st4" points="171.19,94.62 171.19,101.2 177.86,105.05 177.84,98.46 				"/>
				<polygon class="st6" points="174.75,100.26 174.75,102.43 171.97,100.8 171.97,98.65 				"/>
			</g>
			<g>
				<polygon class="st5" points="167.64,90.98 167.66,100.18 169.29,99.19 169.31,90 				"/>
				<polygon points="158.35,85.63 165.84,91.63 167.64,90.98 169.31,90 159.98,84.64 				"/>
				<polygon class="st4" points="158.35,85.63 158.37,94.8 167.66,100.18 167.64,90.98 				"/>
			</g>
			<g>
				<polygon class="st5" points="168.18,133.51 168.18,142.69 169.82,141.7 169.82,132.53 				"/>
				<polygon points="158.87,128.13 166.35,134.15 168.18,133.51 169.82,132.53 160.54,127.16 				"/>
				<polygon class="st4" points="158.87,128.13 158.89,137.32 168.18,142.69 168.18,133.51 				"/>
			</g>
			<g>
				<polygon class="st5" points="155.29,103.84 155.31,110.24 156.44,109.55 156.44,103.15 				"/>
				<polygon points="148.82,100.09 154.03,104.3 155.29,103.84 156.44,103.15 149.97,99.41 				"/>
				<polygon class="st4" points="148.82,100.09 148.82,106.5 155.31,110.24 155.29,103.84 				"/>
			</g>
			<g>
				<polygon class="st5" points="157.4,114.29 157.4,120.87 158.59,120.15 158.59,113.59 				"/>
				<polygon points="150.75,110.45 156.11,114.76 157.4,114.29 158.59,113.59 151.92,109.74 				"/>
				<polygon class="st4" points="150.75,110.45 150.75,117.02 157.4,120.87 157.4,114.29 				"/>
				<polygon class="st6" points="154.31,116.09 154.31,118.24 151.53,116.63 151.53,114.48 				"/>
			</g>
			<g>
				<polygon class="st5" points="176.72,90.91 176.74,94.94 177.45,94.51 177.45,90.5 				"/>
				<polygon points="170.13,87.11 175.03,90.68 176.72,90.91 177.45,90.5 170.87,86.67 				"/>
				<polygon class="st4" points="170.13,87.11 170.13,91.13 176.74,94.94 176.72,90.91 				"/>
			</g>
			<g>
				<polygon class="st5" points="153.2,153.29 153.2,157.31 153.88,156.87 153.88,152.85 				"/>
				<polygon points="146.59,149.48 151.49,153.05 153.2,153.29 153.88,152.85 147.31,149.04 				"/>
				<polygon class="st4" points="146.59,149.48 146.59,153.5 153.2,157.31 153.2,153.29 				"/>
			</g>
			<g>
				<polygon class="st5" points="151.76,85.39 146.43,82.3 147.55,81.69 152.9,84.77 				"/>
				<polygon points="151.76,97.08 150.78,87.84 151.76,85.39 152.9,84.77 152.9,96.46 				"/>
				<polygon class="st4" points="151.76,97.08 146.43,93.99 146.43,82.3 151.76,85.39 				"/>
			</g>
			<g>
				<polygon class="st5" points="154.17,145.61 154.17,152.19 155.34,151.47 155.36,144.9 				"/>
				<polygon points="147.51,141.76 152.87,146.08 154.17,145.61 155.36,144.9 148.68,141.06 				"/>
				<polygon class="st4" points="147.51,141.76 147.51,148.34 154.17,152.19 154.17,145.61 				"/>
				<polygon class="st6" points="151.08,147.4 151.08,149.55 148.28,147.94 148.28,145.79 				"/>
			</g>
			<g>
				<polygon class="st5" points="179.41,141.93 179.41,145.96 180.12,145.52 180.12,141.5 				"/>
				<polygon points="172.82,138.13 177.7,141.7 179.41,141.93 180.12,141.5 173.54,137.7 				"/>
				<polygon class="st4" points="172.82,138.13 172.82,142.15 179.41,145.96 179.41,141.93 				"/>
			</g>
			<g>
				<polygon class="st5" points="179.38,147.19 179.38,151.21 180.08,150.79 180.08,146.77 				"/>
				<polygon points="172.78,143.39 177.65,146.95 179.38,147.19 180.08,146.77 173.53,142.95 				"/>
				<polygon class="st4" points="172.78,143.39 172.78,147.4 179.38,151.21 179.38,147.19 				"/>
			</g>
			<polygon class="st0" points="169.69,83.11 169.69,85.01 174.82,87.96 174.82,86.08 			"/>
			<g>
				<polygon class="st3" points="174.45,110.39 174.43,125.46 177.12,123.82 177.14,108.78 				"/>
				<polygon class="st7" points="175.88,109.51 175.89,124.59 177.12,123.82 177.14,108.78 				"/>
				<polygon class="st4" points="159.16,101.56 171.43,111.44 174.45,110.39 177.14,108.78 161.87,99.96 				"/>
				<polygon class="st8" points="160.61,100.7 175.88,109.51 177.14,108.78 161.87,99.96 				"/>
				<polygon class="st5" points="159.16,101.56 159.16,116.63 174.43,125.46 174.45,110.39 				"/>
				<polygon class="st3" points="172.25,114.05 172.27,119.01 161.1,112.54 161.08,107.59 				"/>
			</g>
			<g>
				<polygon class="st3" points="175.53,154.72 175.53,169.8 178.23,168.18 178.25,153.12 				"/>
				<polygon class="st7" points="176.98,153.87 176.98,168.93 178.23,168.18 178.25,153.12 				"/>
				<polygon class="st4" points="160.26,145.93 172.53,155.79 175.53,154.72 178.25,153.12 162.96,144.29 				"/>
				<polygon class="st8" points="161.7,145.04 176.98,153.87 178.25,153.12 162.96,144.29 				"/>
				<polygon class="st5" points="160.26,145.93 160.26,160.98 175.53,169.8 175.53,154.72 				"/>
			</g>
			<g>
				<path class="st9" d="M161.99,119.38c0.53,0.31,0.97,1.07,0.97,1.72c0,0.62-0.44,0.89-0.97,0.57c-0.55-0.32-1.02-1.1-1.02-1.73
					C160.97,119.3,161.44,119.05,161.99,119.38z"/>
				<path class="st10" d="M160.14,122.86l2.35-1.34l0,0c0.14-0.1,0.22-0.26,0.22-0.53c0-0.5-0.36-1.12-0.78-1.37
					c-0.22-0.13-0.42-0.14-0.59-0.06l0,0l-2.3,1.34L160.14,122.86z"/>
				<path class="st11" d="M159.58,120.94c0.45,0.27,0.79,0.88,0.79,1.39c0,0.51-0.34,0.71-0.79,0.46c-0.43-0.26-0.79-0.87-0.79-1.39
					C158.79,120.91,159.15,120.7,159.58,120.94z"/>
			</g>
			<g>
				<path class="st9" d="M164.56,120.94c0.54,0.33,0.98,1.09,0.98,1.72c0,0.65-0.42,0.89-0.98,0.58c-0.58-0.31-1.01-1.09-1.01-1.72
					C163.54,120.89,163.97,120.63,164.56,120.94z"/>
				<path class="st10" d="M162.72,124.44l2.32-1.34l0,0c0.15-0.08,0.22-0.27,0.22-0.52c0-0.51-0.34-1.12-0.79-1.38
					c-0.22-0.13-0.41-0.14-0.58-0.06l0,0l-2.3,1.34L162.72,124.44z"/>
				<path class="st11" d="M162.16,122.54c0.44,0.26,0.8,0.87,0.8,1.37c0,0.52-0.36,0.74-0.8,0.47c-0.44-0.25-0.81-0.87-0.81-1.38
					C161.35,122.49,161.7,122.28,162.16,122.54z"/>
			</g>
			<g>
				<path class="st9" d="M167.39,122.54c0.58,0.32,1.02,1.09,1.02,1.72c0,0.62-0.44,0.89-1.02,0.57c-0.53-0.32-0.98-1.08-0.98-1.73
					C166.41,122.48,166.86,122.23,167.39,122.54z"/>
				<path class="st10" d="M165.57,126.03l2.34-1.36l0,0c0.14-0.07,0.23-0.25,0.23-0.51c0-0.5-0.37-1.13-0.81-1.38
					c-0.21-0.13-0.42-0.14-0.55-0.06l0,0l-2.35,1.35L165.57,126.03z"/>
				<path class="st11" d="M165.03,124.14c0.43,0.25,0.77,0.87,0.77,1.37c0,0.51-0.34,0.73-0.77,0.46c-0.45-0.26-0.81-0.87-0.81-1.37
					C164.22,124.08,164.58,123.88,165.03,124.14z"/>
			</g>
			<g>
				<path class="st9" d="M169.97,124.13c0.58,0.31,1.01,1.08,1.01,1.72c0,0.64-0.43,0.89-1.01,0.57c-0.53-0.31-0.97-1.08-0.97-1.7
					C169,124.06,169.44,123.81,169.97,124.13z"/>
				<path class="st10" d="M168.15,127.62l2.33-1.34l0,0c0.14-0.08,0.23-0.26,0.23-0.53c0-0.5-0.34-1.12-0.79-1.37
					c-0.21-0.13-0.41-0.14-0.54-0.05l0,0l-2.35,1.34L168.15,127.62z"/>
				<path class="st11" d="M167.6,125.71c0.44,0.26,0.8,0.87,0.8,1.39c0,0.51-0.36,0.7-0.8,0.46c-0.45-0.25-0.81-0.88-0.81-1.39
					C166.79,125.66,167.15,125.46,167.6,125.71z"/>
			</g>
			<g>
				<path class="st9" d="M155.8,154.19c0.51,0.29,0.91,0.98,0.91,1.55c0,0.56-0.41,0.8-0.91,0.51c-0.49-0.28-0.91-0.97-0.88-1.55
					C154.91,154.15,155.31,153.91,155.8,154.19z"/>
				<path class="st10" d="M154.15,157.34l2.09-1.2l0,0c0.14-0.08,0.2-0.25,0.2-0.48c0-0.46-0.33-1.01-0.7-1.24
					c-0.2-0.12-0.39-0.13-0.51-0.05l0,0l-2.11,1.21L154.15,157.34z"/>
				<path class="st11" d="M153.65,155.63c0.4,0.23,0.72,0.79,0.72,1.25c0,0.46-0.32,0.64-0.72,0.41c-0.41-0.23-0.73-0.79-0.73-1.24
					C152.91,155.58,153.24,155.39,153.65,155.63z"/>
			</g>
			<g>
				<path class="st9" d="M158.11,155.62c0.48,0.29,0.88,0.97,0.88,1.56c0,0.56-0.41,0.79-0.88,0.51c-0.49-0.29-0.88-0.98-0.88-1.55
					C157.23,155.56,157.62,155.34,158.11,155.62z"/>
				<path class="st10" d="M156.47,158.77l2.09-1.22l0,0c0.13-0.07,0.23-0.23,0.23-0.46c0-0.46-0.33-1.02-0.75-1.26
					c-0.17-0.11-0.36-0.12-0.48-0.05l0,0l-2.11,1.22L156.47,158.77z"/>
				<path class="st11" d="M155.96,157.05c0.39,0.24,0.73,0.8,0.73,1.25c0,0.46-0.34,0.65-0.73,0.41c-0.41-0.22-0.73-0.79-0.73-1.24
					C155.24,157.01,155.56,156.83,155.96,157.05z"/>
			</g>
			<g>
				<path class="st9" d="M155.48,96.07c0.52,0.28,0.92,0.97,0.92,1.55c0,0.57-0.4,0.8-0.92,0.51c-0.48-0.28-0.88-0.98-0.88-1.54
					C154.6,96.02,155,95.78,155.48,96.07z"/>
				<path class="st10" d="M153.84,99.21l2.11-1.21l0,0c0.11-0.08,0.21-0.23,0.21-0.48c0-0.46-0.32-1.01-0.73-1.25
					c-0.19-0.11-0.38-0.13-0.5-0.04l0,0l-2.09,1.21L153.84,99.21z"/>
				<path class="st11" d="M153.33,97.49c0.41,0.24,0.72,0.79,0.72,1.26c0,0.46-0.32,0.64-0.72,0.42c-0.39-0.23-0.71-0.79-0.71-1.26
					C152.61,97.46,152.94,97.27,153.33,97.49z"/>
			</g>
			<g>
				<path class="st9" d="M157.81,97.49c0.51,0.29,0.89,0.98,0.89,1.55c0,0.57-0.38,0.8-0.89,0.52c-0.5-0.28-0.9-0.98-0.9-1.55
					C156.91,97.44,157.31,97.21,157.81,97.49z"/>
				<path class="st10" d="M156.16,100.63l2.1-1.21l0,0c0.13-0.06,0.21-0.23,0.21-0.45c0-0.46-0.32-1.02-0.73-1.24
					c-0.18-0.11-0.37-0.13-0.49-0.06l0,0l-2.1,1.21L156.16,100.63z"/>
				<path class="st11" d="M155.66,98.92c0.39,0.24,0.72,0.79,0.72,1.25c0,0.45-0.33,0.64-0.72,0.41c-0.4-0.23-0.73-0.79-0.73-1.24
					C154.93,98.88,155.25,98.69,155.66,98.92z"/>
			</g>
			<g>
				<path class="st9" d="M146.91,107.73c0.5,0.28,0.9,0.97,0.9,1.55c0,0.56-0.4,0.79-0.9,0.5c-0.48-0.27-0.9-0.97-0.9-1.55
					C146.01,107.67,146.43,107.43,146.91,107.73z"/>
				<path class="st10" d="M145.26,110.86l2.11-1.21l0,0c0.11-0.07,0.19-0.23,0.19-0.46c0-0.47-0.31-1.03-0.72-1.25
					c-0.18-0.12-0.38-0.14-0.49-0.05l0,0l-2.11,1.21L145.26,110.86z"/>
				<path class="st11" d="M144.76,109.16c0.39,0.22,0.73,0.79,0.73,1.23c0,0.45-0.34,0.64-0.73,0.42c-0.4-0.24-0.73-0.79-0.73-1.25
					C144.03,109.11,144.36,108.92,144.76,109.16z"/>
			</g>
			<g>
				<path class="st9" d="M149.22,109.15c0.51,0.28,0.9,0.97,0.9,1.55c0,0.57-0.39,0.81-0.9,0.52c-0.49-0.28-0.91-0.98-0.91-1.55
					C148.32,109.1,148.74,108.87,149.22,109.15z"/>
				<path class="st10" d="M147.58,112.3l2.11-1.23l0,0c0.11-0.07,0.18-0.22,0.18-0.46c0-0.46-0.31-1.02-0.73-1.25
					c-0.19-0.11-0.35-0.11-0.49-0.04l0,0l-2.09,1.21L147.58,112.3z"/>
				<path class="st11" d="M147.08,110.58c0.4,0.23,0.71,0.79,0.71,1.25c0,0.47-0.31,0.64-0.71,0.42c-0.4-0.23-0.73-0.8-0.73-1.25
					C146.35,110.54,146.68,110.36,147.08,110.58z"/>
			</g>
			<g>
				<path class="st9" d="M146.35,132.72c0.47,0.3,0.89,0.98,0.89,1.56c0,0.56-0.42,0.8-0.89,0.52c-0.5-0.29-0.89-0.99-0.89-1.55
					C145.46,132.68,145.85,132.44,146.35,132.72z"/>
				<path class="st10" d="M144.69,135.87l2.1-1.22l0,0c0.12-0.07,0.22-0.23,0.22-0.45c0-0.46-0.32-1.02-0.73-1.25
					c-0.2-0.11-0.37-0.12-0.49-0.05l0,0l-2.11,1.21L144.69,135.87z"/>
				<path class="st11" d="M144.19,134.16c0.4,0.23,0.73,0.79,0.73,1.24c0,0.46-0.33,0.64-0.73,0.41c-0.38-0.22-0.72-0.79-0.72-1.23
					C143.47,134.12,143.81,133.93,144.19,134.16z"/>
			</g>
			<g>
				<path class="st9" d="M148.64,134.15c0.51,0.28,0.92,0.99,0.92,1.55c0,0.58-0.4,0.81-0.92,0.53c-0.47-0.28-0.87-0.99-0.87-1.55
					C147.76,134.11,148.17,133.87,148.64,134.15z"/>
				<path class="st10" d="M147,137.31l2.1-1.22l0,0c0.12-0.07,0.23-0.23,0.23-0.46c0-0.45-0.33-1.02-0.73-1.24
					c-0.2-0.12-0.38-0.13-0.51-0.05l0,0l-2.1,1.2L147,137.31z"/>
				<path class="st11" d="M146.5,135.6c0.4,0.22,0.73,0.78,0.73,1.24c0,0.45-0.33,0.64-0.73,0.41c-0.4-0.23-0.71-0.79-0.71-1.24
					C145.79,135.55,146.1,135.36,146.5,135.6z"/>
			</g>
			<polygon class="st0" points="191.95,96.76 191.95,101.44 196.68,104.17 196.68,99.5 			"/>
			<polygon class="st2" points="194.56,116.65 194.56,136.36 214.52,147.89 214.52,128.18 			"/>
			<polygon class="st2" points="195.12,160.93 195.11,180.64 215.09,192.17 215.09,172.46 			"/>
			<g>
				<polygon class="st3" points="201.95,103.91 201.95,107.93 202.68,107.51 202.68,103.49 				"/>
				<polygon class="st4" points="197.9,101.57 201.18,104.19 201.95,103.91 202.68,103.49 198.61,101.14 				"/>
				<polygon class="st5" points="197.9,101.57 197.9,105.58 201.95,107.93 201.95,103.91 				"/>
				<polygon class="st6" points="200.33,103.72 200.33,104.48 198.58,103.47 198.58,102.7 				"/>
			</g>
			<g>
				<polygon class="st3" points="193.09,108.46 193.14,114.8 193.83,114.37 193.81,108.03 				"/>
				<polygon class="st4" points="189.02,106.1 192.3,108.74 193.09,108.46 193.81,108.03 189.75,105.67 				"/>
				<polygon class="st5" points="189.02,106.1 189.06,112.45 193.14,114.8 193.09,108.46 				"/>
				<polygon class="st6" points="191.47,108.26 191.47,109.04 189.72,108.02 189.72,107.24 				"/>
			</g>
			<g>
				<polygon class="st3" points="191.77,160.18 191.77,164.19 192.5,163.77 192.5,159.75 				"/>
				<polygon class="st4" points="187.69,157.83 190.99,160.47 191.77,160.18 192.5,159.75 188.42,157.4 				"/>
				<polygon class="st5" points="187.69,157.83 187.69,161.85 191.77,164.19 191.77,160.18 				"/>
				<polygon class="st6" points="190.13,159.98 190.13,160.75 188.37,159.75 188.37,158.97 				"/>
			</g>
			<g>
				<polygon class="st3" points="189.75,96.6 189.75,103.16 190.92,102.47 190.92,95.9 				"/>
				<polygon class="st7" points="190.39,96.21 190.39,102.79 190.92,102.47 190.92,95.9 				"/>
				<polygon class="st4" points="183.09,92.75 188.45,97.06 189.75,96.6 190.92,95.9 184.27,92.05 				"/>
				<polygon class="st8" points="183.71,92.37 190.39,96.21 190.92,95.9 184.27,92.05 				"/>
				<polygon class="st5" points="183.09,92.75 183.09,99.33 189.75,103.16 189.75,96.6 				"/>
				<polygon class="st6" points="188.8,97.29 188.8,99.45 183.92,96.63 183.92,94.47 				"/>
			</g>
			<g>
				<polygon class="st3" points="189.4,148.79 189.38,156.25 190.73,155.44 190.75,147.98 				"/>
				<polygon class="st7" points="190.12,148.35 190.12,155.82 190.73,155.44 190.75,147.98 				"/>
				<polygon class="st4" points="181.75,144.38 187.91,149.31 189.4,148.79 190.75,147.98 183.11,143.57 				"/>
				<polygon class="st8" points="182.48,143.95 190.12,148.35 190.75,147.98 183.11,143.57 				"/>
				<polygon class="st5" points="181.75,144.38 181.75,151.84 189.38,156.25 189.4,148.79 				"/>
			</g>
			<g>
				<polygon class="st5" points="213.1,118.83 213.12,125.41 214.27,124.69 214.3,118.14 				"/>
				<polygon points="206.45,114.98 211.82,119.31 213.1,118.83 214.3,118.14 207.62,114.28 				"/>
				<polygon class="st4" points="206.45,114.98 206.45,121.57 213.12,125.41 213.1,118.83 				"/>
				<polygon class="st6" points="210.01,120.62 210.01,122.79 207.22,121.17 207.22,119.01 				"/>
			</g>
			<g>
				<polygon class="st5" points="202.9,111.35 202.92,120.54 204.55,119.55 204.57,110.37 				"/>
				<polygon points="193.61,105.99 201.1,112 202.9,111.35 204.57,110.37 195.24,105 				"/>
				<polygon class="st4" points="193.61,105.99 193.63,115.17 202.92,120.54 202.9,111.35 				"/>
			</g>
			<g>
				<polygon class="st5" points="203.44,153.87 203.44,163.05 205.08,162.07 205.08,152.89 				"/>
				<polygon points="194.13,148.5 201.61,154.52 203.44,153.87 205.08,152.89 195.8,147.52 				"/>
				<polygon class="st4" points="194.13,148.5 194.15,157.69 203.44,163.05 203.44,153.87 				"/>
			</g>
			<g>
				<polygon class="st5" points="190.55,124.2 190.57,130.61 191.7,129.92 191.7,123.52 				"/>
				<polygon points="184.08,120.45 189.29,124.66 190.55,124.2 191.7,123.52 185.23,119.77 				"/>
				<polygon class="st4" points="184.08,120.45 184.08,126.87 190.57,130.61 190.55,124.2 				"/>
			</g>
			<g>
				<polygon class="st5" points="214.09,152.38 214.09,158.95 215.27,158.24 215.27,151.68 				"/>
				<polygon points="207.43,148.54 212.79,152.85 214.09,152.38 215.27,151.68 208.6,147.83 				"/>
				<polygon class="st4" points="207.43,148.54 207.43,155.11 214.09,158.95 214.09,152.38 				"/>
				<polygon class="st6" points="211,154.17 211,156.33 208.21,154.72 208.21,152.56 				"/>
			</g>
			<g>
				<polygon class="st5" points="211.98,111.27 212,115.3 212.71,114.87 212.71,110.86 				"/>
				<polygon points="205.39,107.48 210.28,111.04 211.98,111.27 212.71,110.86 206.12,107.04 				"/>
				<polygon class="st4" points="205.39,107.48 205.39,111.5 212,115.3 211.98,111.27 				"/>
			</g>
			<g>
				<polygon class="st5" points="188.45,173.66 188.45,177.67 189.14,177.23 189.14,173.22 				"/>
				<polygon points="181.85,169.85 186.75,173.41 188.45,173.66 189.14,173.22 182.57,169.41 				"/>
				<polygon class="st4" points="181.85,169.85 181.85,173.86 188.45,177.67 188.45,173.66 				"/>
			</g>
			<g>
				<polygon class="st5" points="187.01,105.76 181.69,102.66 182.8,102.05 188.16,105.14 				"/>
				<polygon points="187.01,117.44 186.03,108.2 187.01,105.76 188.16,105.14 188.16,116.82 				"/>
				<polygon class="st4" points="187.01,117.44 181.69,114.36 181.69,102.66 187.01,105.76 				"/>
			</g>
			<g>
				<polygon class="st5" points="189.43,165.98 189.43,172.55 190.6,171.84 190.61,165.26 				"/>
				<polygon points="182.77,162.12 188.13,166.44 189.43,165.98 190.61,165.26 183.94,161.42 				"/>
				<polygon class="st4" points="182.77,162.12 182.77,168.71 189.43,172.55 189.43,165.98 				"/>
				<polygon class="st6" points="186.33,167.76 186.33,169.92 183.54,168.31 183.54,166.16 				"/>
			</g>
			<g>
				<polygon class="st5" points="214.67,162.29 214.67,166.32 215.38,165.89 215.38,161.87 				"/>
				<polygon points="208.07,158.5 212.96,162.07 214.67,162.29 215.38,161.87 208.8,158.06 				"/>
				<polygon class="st4" points="208.07,158.5 208.07,162.51 214.67,166.32 214.67,162.29 				"/>
			</g>
			<g>
				<polygon class="st5" points="214.64,167.55 214.64,171.58 215.34,171.15 215.34,167.14 				"/>
				<polygon points="208.04,163.75 212.91,167.31 214.64,167.55 215.34,167.14 208.79,163.32 				"/>
				<polygon class="st4" points="208.04,163.75 208.04,167.76 214.64,171.58 214.64,167.55 				"/>
			</g>
			<polygon class="st0" points="204.95,103.47 204.95,105.37 210.08,108.33 210.08,106.44 			"/>
			<g>
				<polygon class="st3" points="209.71,130.75 209.68,145.82 212.38,144.19 212.4,129.14 				"/>
				<polygon class="st7" points="211.13,129.88 211.15,144.95 212.38,144.19 212.4,129.14 				"/>
				<polygon class="st4" points="194.42,121.93 206.69,131.8 209.71,130.75 212.4,129.14 197.12,120.33 				"/>
				<polygon class="st8" points="195.87,121.06 211.13,129.88 212.4,129.14 197.12,120.33 				"/>
				<polygon class="st5" points="194.42,121.93 194.42,137 209.68,145.82 209.71,130.75 				"/>
				<polygon class="st3" points="207.51,134.42 207.53,139.38 196.36,132.9 196.34,127.96 				"/>
			</g>
			<g>
				<polygon class="st3" points="210.79,175.09 210.79,190.16 213.49,188.55 213.5,173.49 				"/>
				<polygon class="st7" points="212.23,174.23 212.23,189.3 213.49,188.55 213.5,173.49 				"/>
				<polygon class="st4" points="195.52,166.29 207.79,176.15 210.79,175.09 213.5,173.49 198.22,164.66 				"/>
				<polygon class="st8" points="196.95,165.41 212.23,174.23 213.5,173.49 198.22,164.66 				"/>
				<polygon class="st5" points="195.52,166.29 195.52,181.35 210.79,190.16 210.79,175.09 				"/>
			</g>
			<g>
				<path class="st9" d="M195.16,140.41c0.48,0.27,0.87,0.96,0.87,1.55c0,0.56-0.4,0.8-0.87,0.52c-0.49-0.29-0.92-0.99-0.92-1.56
					C194.25,140.34,194.67,140.11,195.16,140.41z"/>
				<path class="st10" d="M193.5,143.54l2.11-1.21l0,0c0.13-0.09,0.2-0.24,0.2-0.48c0-0.45-0.32-1.01-0.7-1.23
					c-0.2-0.12-0.38-0.13-0.53-0.05l0,0l-2.07,1.21L193.5,143.54z"/>
				<path class="st11" d="M192.99,141.82c0.4,0.24,0.71,0.8,0.71,1.26c0,0.46-0.31,0.64-0.71,0.42c-0.39-0.23-0.71-0.78-0.71-1.25
					C192.28,141.79,192.61,141.6,192.99,141.82z"/>
			</g>
			<g>
				<path class="st9" d="M197.48,141.82c0.49,0.3,0.88,0.98,0.88,1.55c0,0.58-0.38,0.81-0.88,0.52c-0.52-0.28-0.91-0.98-0.91-1.55
					C196.56,141.77,196.95,141.54,197.48,141.82z"/>
				<path class="st10" d="M195.83,144.97l2.09-1.21l0,0c0.14-0.07,0.2-0.24,0.2-0.47c0-0.46-0.31-1.01-0.71-1.24
					c-0.2-0.11-0.36-0.13-0.52-0.05l0,0l-2.07,1.21L195.83,144.97z"/>
				<path class="st11" d="M195.32,143.26c0.4,0.23,0.72,0.78,0.72,1.23c0,0.47-0.32,0.66-0.72,0.42c-0.4-0.22-0.73-0.78-0.73-1.24
					C194.59,143.21,194.91,143.02,195.32,143.26z"/>
			</g>
			<g>
				<path class="st9" d="M200.03,143.26c0.53,0.28,0.92,0.98,0.92,1.55c0,0.56-0.4,0.8-0.92,0.52c-0.48-0.29-0.88-0.98-0.88-1.56
					C199.15,143.2,199.55,142.97,200.03,143.26z"/>
				<path class="st10" d="M198.39,146.4l2.1-1.22l0,0c0.13-0.06,0.21-0.23,0.21-0.46c0-0.45-0.33-1.02-0.73-1.24
					c-0.19-0.12-0.38-0.13-0.49-0.06l0,0l-2.11,1.21L198.39,146.4z"/>
				<path class="st11" d="M197.9,144.69c0.39,0.22,0.7,0.79,0.7,1.23c0,0.46-0.31,0.66-0.7,0.42c-0.4-0.23-0.73-0.78-0.73-1.23
					C197.17,144.64,197.5,144.46,197.9,144.69z"/>
			</g>
			<g>
				<path class="st9" d="M202.35,144.68c0.52,0.28,0.91,0.97,0.91,1.55c0,0.57-0.39,0.8-0.91,0.51c-0.48-0.28-0.88-0.97-0.88-1.53
					C201.48,144.63,201.87,144.4,202.35,144.68z"/>
				<path class="st10" d="M200.71,147.83l2.1-1.21l0,0c0.13-0.07,0.2-0.23,0.2-0.48c0-0.45-0.31-1.01-0.71-1.23
					c-0.19-0.12-0.37-0.12-0.49-0.05l0,0l-2.11,1.21L200.71,147.83z"/>
				<path class="st11" d="M200.22,146.11c0.39,0.23,0.72,0.79,0.72,1.26c0,0.46-0.32,0.63-0.72,0.41c-0.41-0.23-0.73-0.79-0.73-1.25
					C199.49,146.06,199.81,145.88,200.22,146.11z"/>
			</g>
			<g>
				<path class="st9" d="M191.05,174.56c0.51,0.29,0.91,0.98,0.91,1.56c0,0.56-0.4,0.8-0.91,0.51c-0.49-0.28-0.91-0.97-0.88-1.55
					C190.17,174.52,190.57,174.28,191.05,174.56z"/>
				<path class="st10" d="M189.41,177.7l2.09-1.2l0,0c0.14-0.09,0.2-0.25,0.2-0.48c0-0.46-0.33-1.01-0.7-1.24
					c-0.2-0.12-0.39-0.13-0.51-0.05l0,0l-2.11,1.21L189.41,177.7z"/>
				<path class="st11" d="M188.91,176c0.4,0.22,0.72,0.79,0.72,1.25c0,0.46-0.32,0.64-0.72,0.41c-0.4-0.23-0.73-0.79-0.73-1.24
					C188.17,175.95,188.5,175.76,188.91,176z"/>
			</g>
			<g>
				<path class="st9" d="M193.37,175.99c0.48,0.29,0.88,0.97,0.88,1.56c0,0.56-0.4,0.79-0.88,0.51c-0.49-0.29-0.88-0.98-0.88-1.55
					C192.49,175.92,192.87,175.71,193.37,175.99z"/>
				<path class="st10" d="M191.72,179.14l2.09-1.22l0,0c0.13-0.07,0.23-0.23,0.23-0.46c0-0.46-0.33-1.02-0.74-1.26
					c-0.17-0.11-0.36-0.12-0.48-0.05l0,0l-2.11,1.22L191.72,179.14z"/>
				<path class="st11" d="M191.22,177.41c0.39,0.24,0.73,0.8,0.73,1.25c0,0.46-0.34,0.65-0.73,0.42c-0.41-0.22-0.73-0.79-0.73-1.24
					C190.49,177.38,190.82,177.19,191.22,177.41z"/>
			</g>
			<g>
				<path class="st9" d="M190.74,116.44c0.52,0.28,0.91,0.97,0.91,1.55c0,0.57-0.4,0.8-0.91,0.51c-0.48-0.28-0.88-0.98-0.88-1.54
					C189.85,116.38,190.26,116.14,190.74,116.44z"/>
				<path class="st10" d="M189.09,119.58l2.11-1.21l0,0c0.11-0.08,0.21-0.24,0.21-0.48c0-0.46-0.32-1.01-0.73-1.25
					c-0.19-0.11-0.38-0.13-0.5-0.04l0,0l-2.09,1.21L189.09,119.58z"/>
				<path class="st11" d="M188.58,117.85c0.41,0.24,0.72,0.79,0.72,1.26c0,0.46-0.32,0.64-0.72,0.42c-0.39-0.23-0.71-0.79-0.71-1.26
					C187.87,117.82,188.19,117.63,188.58,117.85z"/>
			</g>
			<g>
				<path class="st9" d="M193.07,117.85c0.51,0.29,0.89,0.98,0.89,1.55c0,0.57-0.38,0.8-0.89,0.52c-0.49-0.28-0.9-0.98-0.9-1.55
					C192.17,117.8,192.57,117.57,193.07,117.85z"/>
				<path class="st10" d="M191.42,120.99l2.1-1.21l0,0c0.13-0.06,0.21-0.23,0.21-0.45c0-0.46-0.32-1.02-0.73-1.24
					c-0.18-0.11-0.37-0.12-0.49-0.06l0,0l-2.1,1.21L191.42,120.99z"/>
				<path class="st11" d="M190.91,119.29c0.39,0.24,0.72,0.79,0.72,1.25c0,0.45-0.33,0.64-0.72,0.41c-0.4-0.23-0.73-0.78-0.73-1.24
					C190.19,119.24,190.51,119.06,190.91,119.29z"/>
			</g>
			<g>
				<path class="st9" d="M182.17,128.09c0.5,0.28,0.9,0.97,0.9,1.55c0,0.56-0.4,0.79-0.9,0.5c-0.48-0.28-0.9-0.97-0.9-1.55
					C181.27,128.03,181.69,127.79,182.17,128.09z"/>
				<path class="st10" d="M180.52,131.22l2.11-1.21l0,0c0.11-0.07,0.19-0.23,0.19-0.46c0-0.47-0.31-1.03-0.72-1.25
					c-0.18-0.12-0.38-0.14-0.49-0.05l0,0l-2.11,1.21L180.52,131.22z"/>
				<path class="st11" d="M180.01,129.53c0.39,0.22,0.73,0.79,0.73,1.23c0,0.45-0.34,0.64-0.73,0.42c-0.4-0.23-0.73-0.79-0.73-1.25
					C179.28,129.47,179.61,129.29,180.01,129.53z"/>
			</g>
			<g>
				<path class="st9" d="M184.48,129.51c0.51,0.28,0.9,0.97,0.9,1.55c0,0.57-0.39,0.81-0.9,0.52c-0.49-0.28-0.91-0.98-0.91-1.55
					C183.57,129.46,183.99,129.24,184.48,129.51z"/>
				<path class="st10" d="M182.84,132.66l2.11-1.23l0,0c0.11-0.07,0.18-0.22,0.18-0.46c0-0.46-0.31-1.02-0.73-1.25
					c-0.19-0.11-0.35-0.11-0.49-0.04l0,0l-2.09,1.21L182.84,132.66z"/>
				<path class="st11" d="M182.34,130.94c0.4,0.23,0.7,0.79,0.7,1.25c0,0.47-0.31,0.64-0.7,0.42c-0.4-0.23-0.73-0.8-0.73-1.25
					C181.61,130.9,181.94,130.72,182.34,130.94z"/>
			</g>
			<g>
				<path class="st9" d="M181.61,153.09c0.47,0.3,0.89,0.98,0.89,1.56c0,0.56-0.42,0.8-0.89,0.52c-0.5-0.29-0.89-0.99-0.89-1.55
					C180.72,153.04,181.11,152.81,181.61,153.09z"/>
				<path class="st10" d="M179.95,156.24l2.1-1.22l0,0c0.12-0.07,0.22-0.23,0.22-0.45c0-0.46-0.32-1.02-0.73-1.25
					c-0.2-0.11-0.37-0.12-0.49-0.05l0,0l-2.11,1.21L179.95,156.24z"/>
				<path class="st11" d="M179.45,154.53c0.4,0.23,0.73,0.79,0.73,1.24c0,0.46-0.33,0.64-0.73,0.41c-0.38-0.22-0.72-0.79-0.72-1.23
					C178.73,154.48,179.06,154.29,179.45,154.53z"/>
			</g>
			<g>
				<path class="st9" d="M183.9,154.52c0.51,0.28,0.92,0.99,0.92,1.55c0,0.58-0.4,0.81-0.92,0.53c-0.47-0.28-0.87-0.99-0.87-1.55
					C183.02,154.47,183.43,154.24,183.9,154.52z"/>
				<path class="st10" d="M182.26,157.67l2.1-1.22l0,0c0.12-0.07,0.23-0.23,0.23-0.46c0-0.45-0.33-1.02-0.73-1.24
					c-0.21-0.12-0.38-0.13-0.51-0.05l0,0l-2.1,1.2L182.26,157.67z"/>
				<path class="st11" d="M181.75,155.96c0.4,0.22,0.73,0.78,0.73,1.24c0,0.45-0.33,0.64-0.73,0.41c-0.4-0.23-0.7-0.79-0.7-1.24
					C181.05,155.91,181.36,155.72,181.75,155.96z"/>
			</g>
			<g>
				<polygon class="st13" points="186.56,145.32 186.56,150.89 191.67,147.89 191.67,142.33 				"/>
				<polygon class="st14" points="143.83,120.66 152.02,127.25 186.56,145.32 191.67,142.33 148.97,117.68 				"/>
				<polygon class="st15" points="143.83,120.66 143.85,126.24 186.56,150.89 186.56,145.32 				"/>
				<polygon class="st4" points="184.71,147.95 145.25,125.18 145.25,123.6 184.71,146.36 				"/>
			</g>
		</g>
		<g>
			<polygon class="st4" points="226.66,114.5 190.77,93.87 190.77,248.94 226.66,269.58 			"/>
			<polygon points="238.42,135.62 194.26,110.12 194.26,101.11 238.42,126.61 			"/>
			<polygon points="238.42,147.62 194.26,122.12 194.26,113.11 238.42,138.61 			"/>
			<polygon points="238.42,159.62 194.26,134.12 194.26,125.11 238.42,150.61 			"/>
			<polygon points="238.42,171.62 194.26,146.12 194.26,137.11 238.42,162.61 			"/>
			<polygon points="238.42,183.62 194.26,158.12 194.26,149.11 238.42,174.61 			"/>
			<polygon points="238.42,195.62 194.26,170.12 194.26,161.11 238.42,186.61 			"/>
			<polygon points="238.42,207.62 194.26,182.12 194.26,173.11 238.42,198.61 			"/>
			<polygon points="238.42,219.62 194.26,194.12 194.26,185.11 238.42,210.61 			"/>
			<polygon points="238.42,231.62 194.26,206.12 194.26,197.11 238.42,222.61 			"/>
			<polygon points="238.42,243.62 194.26,218.12 194.26,209.11 238.42,234.61 			"/>
			<polygon points="238.42,255.62 194.26,230.12 194.26,221.11 238.42,246.61 			"/>
			<polygon points="238.42,267.62 194.26,242.12 194.26,233.11 238.42,258.61 			"/>
		</g>
		<g>
			<polygon class="st7" points="133.35,101.15 181.74,34.05 147.72,14.44 99.35,42.36 			"/>
			<polygon class="st8" points="99.35,81.52 133.35,101.15 133.35,61.98 99.35,42.36 			"/>
			<polygon class="st3" points="113.5,81.85 128.6,90.56 128.6,77.25 113.5,68.53 			"/>
			<polygon class="st16" points="133.35,101.15 181.74,73.24 181.74,34.05 133.35,61.98 			"/>
		</g>
		<g>
			<polygon class="st4" points="225.15,277.95 286.21,242.64 286.21,77.56 225.15,112.87 224.24,239.95 			"/>
			<path class="st5" d="M90.82,35.31v165.08l134.33,77.56V112.87L90.82,35.31z M92.48,39.6l130.99,75.79v157.99L92.48,197.6V39.6z"
				/>
			<polygon class="st5" points="234.16,118.37 234.16,136.47 277.89,111.17 277.89,93.1 			"/>
			<polygon class="st5" points="234.16,139.17 234.16,157.26 277.89,131.96 277.89,113.9 			"/>
			<polygon class="st5" points="234.16,159.67 234.16,177.76 277.89,152.47 277.89,134.4 			"/>
			<polygon class="st3" points="90.82,35.31 151.88,0 286.21,77.56 225.15,112.87 			"/>
			<polygon points="243.01,190.87 243.01,194.44 280.32,172.91 280.32,160.45 277.2,162.24 277.2,171.1 			"/>
			<polygon class="st5" points="243.01,182.02 243.01,190.87 277.2,171.1 277.2,162.24 			"/>
			<g>
				<polygon class="st16" points="270.26,170.19 275.37,167.26 275.37,164.3 270.26,167.24 				"/>
				<polygon points="271.17,169.16 274.48,167.24 274.48,165.32 271.17,167.24 				"/>
			</g>
			<g>
				<polygon class="st16" points="270.26,174.08 275.37,171.13 275.37,168.17 270.26,171.11 				"/>
				<polygon points="271.17,173.04 274.48,171.13 274.48,169.22 271.17,171.11 				"/>
			</g>
			<polygon points="231.99,238.69 231.99,242.28 280.32,214.36 280.32,179.45 277.2,181.23 277.2,212.55 			"/>
			<polygon class="st5" points="231.99,207.37 231.99,238.69 277.2,212.55 277.2,181.23 			"/>
			<polygon points="231.99,252.63 231.99,256.22 280.32,228.32 280.32,220.45 277.2,222.25 277.2,226.52 			"/>
			<polygon class="st5" points="231.99,248.39 231.99,252.63 277.2,226.52 277.2,222.25 			"/>
			<polygon points="231.99,264.35 231.99,267.94 280.32,240.03 280.32,232.17 277.2,233.98 277.2,238.23 			"/>
			<polygon class="st5" points="231.99,260.12 231.99,264.35 277.2,238.23 277.2,233.98 			"/>
			<g>
				<path class="st9" d="M235.79,185.91c-2.08,1.21-3.76,4.11-3.76,6.52c0,2.4,1.68,3.37,3.76,2.17c2.08-1.2,3.76-4.11,3.76-6.51
					C239.54,185.69,237.87,184.71,235.79,185.91z"/>
				<path class="st0" d="M238.17,191.55c0,0.02,0,0.02,0,0.02l-2.1,3.68l-2.16-1.22l0,0c-0.55-0.32-0.88-0.99-0.88-1.95
					c0-1.93,1.35-4.28,3.03-5.25c0.83-0.48,1.55-0.54,2.1-0.21l0,0l2.17,1.23L238.17,191.55z"/>
				<path class="st2" d="M238.1,188.03c-1.67,0.97-3.03,3.31-3.03,5.25c0,1.92,1.36,2.7,3.03,1.73c1.66-0.97,3-3.32,3-5.26
					C241.11,187.85,239.77,187.07,238.1,188.03z"/>
			</g>
			<g>
				<path class="st9" d="M265.82,170.63c-0.84,0.48-1.5,1.65-1.5,2.61c0,0.95,0.66,1.35,1.5,0.87c0.84-0.48,1.5-1.65,1.5-2.6
					C267.32,170.54,266.65,170.16,265.82,170.63z"/>
				<path class="st0" d="M266.76,172.89L266.76,172.89l-0.84,1.48l-0.87-0.49l0,0c-0.2-0.12-0.34-0.39-0.34-0.78
					c0-0.77,0.53-1.71,1.21-2.09c0.31-0.2,0.64-0.22,0.84-0.09l0,0l0.89,0.47L266.76,172.89z"/>
				<path class="st2" d="M266.74,171.49c-0.67,0.38-1.23,1.31-1.23,2.09c0,0.78,0.55,1.08,1.23,0.7c0.66-0.38,1.2-1.31,1.2-2.09
					S267.4,171.1,266.74,171.49z"/>
				<path d="M266.76,172.13c-0.42,0.24-0.72,0.79-0.72,1.25c0,0.46,0.3,0.66,0.72,0.43c0.4-0.23,0.7-0.8,0.7-1.26
					C267.46,172.09,267.17,171.89,266.76,172.13z"/>
			</g>
			<g>
				<path class="st9" d="M261.93,172.81c-0.85,0.49-1.49,1.64-1.49,2.6c0,0.97,0.64,1.36,1.49,0.88c0.84-0.48,1.51-1.66,1.51-2.61
					C263.44,172.72,262.77,172.34,261.93,172.81z"/>
				<path class="st10" d="M262.9,175.08C262.9,175.09,262.9,175.09,262.9,175.08l-0.86,1.48l-0.86-0.5l0,0
					c-0.22-0.13-0.35-0.39-0.35-0.79c0-0.76,0.57-1.71,1.21-2.08c0.34-0.2,0.62-0.21,0.86-0.09l0,0l0.86,0.49L262.9,175.08z"/>
				<path class="st11" d="M262.88,173.66c-0.67,0.39-1.23,1.32-1.23,2.09c0,0.77,0.55,1.09,1.23,0.71c0.63-0.38,1.18-1.33,1.18-2.09
					C264.06,173.6,263.51,173.28,262.88,173.66z"/>
				<path d="M262.88,174.31c-0.42,0.23-0.74,0.79-0.74,1.25c0,0.46,0.31,0.65,0.74,0.42c0.4-0.22,0.69-0.79,0.69-1.26
					C263.57,174.26,263.28,174.08,262.88,174.31z"/>
			</g>
			<g>
				<path class="st9" d="M257.97,175.09c-0.83,0.49-1.49,1.65-1.49,2.62c0,0.94,0.66,1.34,1.49,0.86c0.82-0.48,1.52-1.65,1.52-2.6
					C259.49,175,258.79,174.62,257.97,175.09z"/>
				<path class="st13" d="M258.94,177.36L258.94,177.36l-0.87,1.47l-0.87-0.48l0,0c-0.2-0.13-0.34-0.4-0.34-0.79
					c0-0.77,0.54-1.71,1.21-2.1c0.34-0.19,0.62-0.21,0.87-0.09l0,0l0.86,0.5L258.94,177.36z"/>
				<path class="st15" d="M258.89,175.94c-0.67,0.39-1.21,1.33-1.21,2.1c0,0.77,0.54,1.07,1.21,0.69c0.67-0.38,1.23-1.33,1.23-2.1
					C260.12,175.88,259.55,175.56,258.89,175.94z"/>
				<path d="M258.92,176.58c-0.41,0.24-0.74,0.8-0.74,1.26c0,0.46,0.32,0.64,0.74,0.42c0.39-0.24,0.69-0.8,0.69-1.26
					C259.61,176.55,259.31,176.36,258.92,176.58z"/>
			</g>
		</g>
	</g>
	<g>
		<polygon class="st7" points="31.21,282.74 75.53,249.5 44.34,231.48 0,257.13 		"/>
		<g>
			<polygon class="st17" points="46.13,258.65 28.47,248.45 46.38,238.11 64.04,248.31 			"/>
			<polygon class="st18" points="67,246.6 49.34,236.4 46.38,238.11 64.04,248.31 			"/>
			<polygon class="st7" points="57.9,248.26 44.4,240.47 45.85,239.64 59.35,247.43 			"/>
			<polygon class="st7" points="41.72,250.21 34.63,246.12 36.08,245.28 43.17,249.38 			"/>
			<polygon class="st7" points="44.04,254.4 32.16,247.54 33.61,246.71 45.49,253.57 			"/>
			<polygon class="st7" points="52.86,251.17 39.37,243.38 42.69,241.46 56.19,249.25 			"/>
		</g>
		<polygon class="st5" points="0,264.71 31.21,282.74 31.21,275.12 0,257.13 		"/>
		<polygon class="st3" points="15.62,271.27 29.46,279.28 29.46,276.22 15.6,268.23 		"/>
		<polygon class="st4" points="31.21,282.74 75.53,257.13 75.53,249.5 31.21,275.12 		"/>
		<polygon class="st19" points="74.19,252.81 57.48,262.46 57.48,261.44 74.19,251.79 		"/>
		<g>
			<path class="st8" d="M39.01,259.4c-0.5-1.28-1.63-2.51-3.34-3.51c-4.98-2.85-12.99-2.85-17.95,0c-1.73,1.01-2.85,2.23-3.37,3.51
				H14v0.45l0,0c0,1.88,1.24,3.75,3.72,5.17c4.96,2.87,12.97,2.87,17.95,0c2.44-1.41,3.7-3.29,3.7-5.17v-0.45H39.01z"/>
			<path class="st16" d="M35.67,264.57c-4.98,2.86-12.99,2.86-17.95,0c-4.95-2.85-4.95-7.48,0-10.35c4.96-2.85,12.97-2.85,17.95,0
				C40.6,257.09,40.6,261.72,35.67,264.57z"/>
		</g>
	</g>
	<g>
		<g>
			<g>
				<g>
					<polygon class="st20" points="147.04,327.63 149.56,326.17 149.56,327.94 147.04,329.39 					"/>
					<polygon class="st4" points="143.77,325.74 146.28,326.64 147.04,327.63 147.04,329.39 143.77,327.51 					"/>
					<polygon class="st5" points="143.77,325.74 146.3,324.29 149.56,326.17 147.04,327.63 					"/>
				</g>
				<g>
					<polygon class="st14" points="151.04,330.3 154.49,328.3 154.49,330.72 151.04,332.71 					"/>
					<polygon class="st13" points="146.56,327.71 149.98,328.94 151.04,330.3 151.04,332.71 146.56,330.12 					"/>
					<polygon class="st15" points="146.56,327.71 150.01,325.72 154.49,328.3 151.04,330.3 					"/>
				</g>
				<path class="st21" d="M151.92,331.47c0,0-0.29-0.43,0.13-1.16c0.36-0.63,1.36-0.98,1.36-0.98c6.07,4.25,12.03,5.43,15.97,3.15
					c2.22-1.28,3.4-3.53,3.17-6.01c-0.37-3.92-4.03-7.47-9.82-9.54l0.89-2.47c3.54,1.27,6.37,3.01,8.39,5.17
					c1.85,1.98,2.94,4.27,3.15,6.6c0.16,1.71-0.17,3.41-0.95,4.89c-0.78,1.49-1.99,2.74-3.51,3.62c-2.26,1.31-5.08,1.77-8.17,1.32
					C159.13,335.59,155.56,334.04,151.92,331.47z"/>
			</g>
			<g>
				<g>
					<polygon class="st20" points="138.77,332.4 141.3,330.96 141.3,332.71 138.77,334.17 					"/>
					<polygon class="st4" points="135.52,330.52 138.01,331.42 138.77,332.4 138.77,334.17 135.52,332.29 					"/>
					<polygon class="st5" points="135.52,330.52 138.04,329.06 141.3,330.96 138.77,332.4 					"/>
				</g>
				<g>
					<polygon class="st14" points="142.75,335.06 146.22,333.08 146.21,335.49 142.76,337.49 					"/>
					<polygon class="st13" points="138.29,332.49 141.71,333.71 142.75,335.06 142.76,337.49 138.29,334.91 					"/>
					<polygon class="st15" points="138.29,332.49 141.75,330.49 146.22,333.08 142.75,335.06 					"/>
				</g>
				<path class="st22" d="M143.66,336.28c0,0-0.29-0.43,0.13-1.17c0.37-0.63,1.35-0.97,1.35-0.97c6.07,4.25,12.05,5.43,15.98,3.15
					c2.22-1.29,3.4-3.53,3.18-6.01c-0.37-3.91-4.04-7.47-9.83-9.53l0.87-2.47c3.55,1.26,6.38,3,8.39,5.16
					c1.86,1.99,2.96,4.28,3.17,6.61c0.16,1.72-0.18,3.4-0.95,4.89c-0.77,1.49-2,2.74-3.52,3.62c-2.26,1.32-5.09,1.78-8.16,1.33
					C150.88,340.39,147.31,338.84,143.66,336.28z"/>
			</g>
			<g>
				<polygon class="st0" points="100.05,323.91 100.05,322.23 184.88,304.63 184.88,306.32 127.23,339.61 				"/>
				<polygon class="st1" points="100.05,322.23 157.7,288.94 184.88,304.63 127.23,337.93 				"/>
				<polygon class="st0" points="110.14,326.08 113.25,324.28 116.91,326.38 113.79,328.19 				"/>
				<polygon class="st2" points="124.42,320.17 137.56,312.57 152.96,321.46 139.8,329.04 				"/>
				<polygon class="st2" points="154.18,303.47 167.34,295.88 182.71,304.76 169.56,312.36 				"/>
				<g>
					<polygon class="st3" points="118.77,330.01 121.45,328.46 121.44,329.11 118.76,330.65 					"/>
					<polygon class="st4" points="115.63,328.2 118.66,329.37 118.77,330.01 118.76,330.65 115.63,328.85 					"/>
					<polygon class="st5" points="115.63,328.2 118.32,326.66 121.45,328.46 118.77,330.01 					"/>
					<polygon class="st6" points="118.02,328.99 118.52,328.7 117.18,327.92 116.67,328.22 					"/>
				</g>
				<g>
					<polygon class="st3" points="109.18,324.67 113.57,322.14 113.55,323.2 109.17,325.73 					"/>
					<polygon class="st7" points="109.17,325.24 113.56,322.71 113.55,323.2 109.17,325.73 					"/>
					<polygon class="st4" points="104.05,321.71 109,323.63 109.18,324.67 109.17,325.73 104.04,322.77 					"/>
					<polygon class="st8" points="104.05,322.27 109.17,325.24 109.17,325.73 104.04,322.77 					"/>
					<polygon class="st5" points="104.05,321.71 108.44,319.18 113.57,322.14 109.18,324.67 					"/>
					<polygon class="st6" points="109.29,323.78 110.73,322.94 106.97,320.78 105.53,321.61 					"/>
				</g>
				<g>
					<polygon class="st5" points="133.02,331.7 137.41,329.16 137.38,330.22 133,332.75 					"/>
					<polygon points="127.89,328.73 132.83,330.65 133.02,331.7 133,332.75 127.88,329.79 					"/>
					<polygon class="st4" points="127.89,328.73 132.29,326.21 137.41,329.16 133.02,331.7 					"/>
					<polygon class="st6" points="133.03,328.94 134.47,328.11 132.32,326.88 130.87,327.7 					"/>
				</g>
				<g>
					<polygon class="st5" points="155.79,319.44 160.17,316.9 160.15,317.96 155.77,320.49 					"/>
					<polygon points="150.66,316.47 155.59,318.38 155.79,319.44 155.77,320.49 150.63,317.54 					"/>
					<polygon class="st4" points="150.66,316.47 155.04,313.94 160.17,316.9 155.79,319.44 					"/>
					<polygon class="st6" points="155.8,316.69 157.23,315.85 155.09,314.6 153.65,315.43 					"/>
				</g>
				<g>
					<polygon class="st5" points="127.56,333.85 130.24,332.3 130.22,332.96 127.54,334.5 					"/>
					<polygon points="122.47,330.92 126.73,332.81 127.56,333.85 127.54,334.5 122.46,331.57 					"/>
					<polygon class="st4" points="122.47,330.92 125.16,329.37 130.24,332.3 127.56,333.85 					"/>
				</g>
				<g>
					<polygon class="st5" points="162.63,315.99 165.31,314.44 165.3,315.09 162.62,316.64 					"/>
					<polygon points="157.55,313.06 161.81,314.95 162.63,315.99 162.62,316.64 157.54,313.71 					"/>
					<polygon class="st4" points="157.55,313.06 160.23,311.51 165.31,314.44 162.63,315.99 					"/>
				</g>
				<g>
					<polygon class="st5" points="166.12,313.95 168.79,312.4 168.79,313.04 166.11,314.59 					"/>
					<polygon points="161.04,311.01 165.31,312.91 166.12,313.95 166.11,314.59 161.04,311.66 					"/>
					<polygon class="st4" points="161.04,311.01 163.72,309.46 168.79,312.4 166.12,313.95 					"/>
				</g>
				<polygon class="st0" points="119.63,332.16 120.89,331.44 124.85,333.72 123.59,334.44 				"/>
			</g>
			<g>
				<path class="st4" d="M190.79,297.94c1.95-1.13,2.84-2.65,2.67-4.13l0.01-0.01v-9.4l-29.85-10.25l-45.34,26.09l-5.85,12.21
					l26.62,15.36L190.79,297.94z M126.55,305.63c5.39-3.12,14.12-3.12,19.51,0c2.02,1.17,3.29,2.6,3.79,4.11l-19.58,8.69
					c-1.34-0.39-2.6-0.89-3.72-1.53C121.16,313.78,121.16,308.73,126.55,305.63z M147.01,294.58c0.67-0.88,1.63-1.71,2.89-2.43
					c5.39-3.12,14.12-3.12,19.51,0c2.02,1.17,3.29,2.6,3.79,4.11l-19.58,8.69C153.61,304.95,153.98,297.76,147.01,294.58z"/>
				<polygon points="108.16,321.64 123.12,320.87 139.04,318.4 139.04,327.8 123.12,330.27 				"/>
				<g>
					<g>
						<path class="st3" d="M141.94,299.04l-0.11-0.89h-6.94l0.13,0.89l1.64,4.54c0,0,1.67-0.4,3.63,0L141.94,299.04z"/>
						<path class="st8" d="M141.84,298.16h-6.94l1.65,4.54c0,0,1.67-0.42,3.63,0L141.84,298.16z"/>
					</g>
					<g>
						<path class="st3" d="M126.83,301.74l0.12,0.9l6.73,2.53c0,0,0.68-0.97,2.56-1.48l-0.12-0.89L126.83,301.74z"/>
						<path class="st8" d="M131.74,298.91l-4.9,2.83l6.73,2.54c0,0,0.67-0.97,2.56-1.49L131.74,298.91z"/>
					</g>
					<g>
						<path class="st3" d="M150.01,302.63l-0.12-0.9l-9.29,1.05l0.11,0.89c0,0,1.69,0.4,2.58,1.48L150.01,302.63z"/>
						<path class="st8" d="M149.9,301.74l-4.9-2.83l-4.4,3.88c0,0,1.68,0.4,2.57,1.49L149.9,301.74z"/>
					</g>
					<g>
						<path d="M134.73,310.32c2.07,1.2,5.43,1.2,7.51,0c1.05-0.61,1.58-1.42,1.53-2.23l0.01,0.01v-4.35l-10.58,0.28l-0.02,4.05h0.01
							C133.15,308.87,133.66,309.69,134.73,310.32z"/>
						<path class="st5" d="M134.74,306.02c-2.08-1.19-2.08-3.13,0-4.33c2.07-1.19,5.43-1.19,7.5,0c2.06,1.21,2.06,3.14,0,4.33
							C140.16,307.22,136.8,307.22,134.74,306.02z"/>
					</g>
					<g>
						<path class="st3" d="M125.53,307.57l0.12,0.89l7.87-0.95l-0.13-0.89C133.39,306.61,125.99,306.83,125.53,307.57z"/>
						<path class="st8" d="M125.53,303.56v4l7.86-0.95c-0.23-0.87-0.19-2.12-0.19-2.12L125.53,303.56z"/>
					</g>
					<g>
						<path class="st3" d="M151.33,308.46v-4l-0.12-0.89l-7.42,0.91c0,0,0.67,1.22-0.44,2.14l0.12,0.89L151.33,308.46z"/>
						<path class="st8" d="M151.21,307.57v-4l-7.42,0.91c0,0,0.11,0.85-0.44,2.14L151.21,307.57z"/>
					</g>
					<g>
						<polygon class="st3" points="145.12,313.11 150.01,310.29 149.9,309.39 140.6,308.34 140.72,309.23 						"/>
						<path class="st8" d="M145,312.22l4.9-2.82l-6.72-2.53c0,0-0.69,0.97-2.57,1.48L145,312.22z"/>
					</g>
					<g>
						<polygon class="st3" points="126.96,310.29 131.86,313.11 136.25,309.23 136.13,308.34 126.83,309.39 						"/>
						<path class="st8" d="M126.83,309.39l4.9,2.83l4.4-3.88c0,0-1.68-0.4-2.57-1.48L126.83,309.39z"/>
					</g>
					<g>
						<path class="st3" d="M135.03,313.87h6.92l-0.11-0.89c0,0-4.57-0.93-6.94,0L135.03,313.87z"/>
						<path class="st8" d="M134.9,312.98h6.94l-1.65-4.54c0,0-1.67,0.4-3.63,0L134.9,312.98z"/>
					</g>
				</g>
				<g>
					<g>
						<path class="st3" d="M165.29,285.56l-0.11-0.89h-6.94l0.13,0.89l1.64,4.54c0,0,1.67-0.41,3.63,0L165.29,285.56z"/>
						<path class="st8" d="M165.18,284.67h-6.94l1.65,4.54c0,0,1.67-0.42,3.63,0L165.18,284.67z"/>
					</g>
					<g>
						<path class="st3" d="M150.18,288.26l0.13,0.9l6.73,2.53c0,0,0.68-0.97,2.57-1.49l-0.12-0.89L150.18,288.26z"/>
						<path class="st8" d="M155.08,285.43l-4.9,2.83l6.73,2.54c0,0,0.67-0.97,2.56-1.49L155.08,285.43z"/>
					</g>
					<g>
						<path class="st3" d="M173.35,289.15l-0.12-0.9l-9.29,1.05l0.11,0.89c0,0,1.7,0.39,2.58,1.49L173.35,289.15z"/>
						<path class="st8" d="M173.24,288.26l-4.9-2.83l-4.4,3.88c0,0,1.68,0.4,2.57,1.49L173.24,288.26z"/>
					</g>
					<g>
						<path d="M158.08,296.84c2.07,1.2,5.43,1.2,7.51,0c1.05-0.61,1.57-1.43,1.53-2.23l0.01,0.01v-4.35l-10.58,0.28l-0.02,4.05h0.01
							C156.49,295.39,157,296.21,158.08,296.84z"/>
						<path class="st5" d="M158.08,292.54c-2.08-1.19-2.08-3.13,0-4.33c2.06-1.19,5.43-1.19,7.5,0c2.06,1.21,2.06,3.14,0,4.33
							C163.51,293.73,160.15,293.73,158.08,292.54z"/>
					</g>
					<g>
						<path class="st3" d="M148.88,294.08l0.12,0.89l7.87-0.95l-0.13-0.89C156.74,293.13,149.33,293.35,148.88,294.08z"/>
						<path class="st8" d="M148.88,290.08v4l7.86-0.95c-0.23-0.87-0.19-2.12-0.19-2.12L148.88,290.08z"/>
					</g>
					<g>
						<path class="st3" d="M174.67,294.97v-4l-0.12-0.9l-7.42,0.91c0,0,0.67,1.21-0.44,2.14l0.12,0.89L174.67,294.97z"/>
						<path class="st8" d="M174.55,294.08v-4l-7.42,0.91c0,0,0.11,0.85-0.44,2.14L174.55,294.08z"/>
					</g>
					<g>
						<polygon class="st3" points="168.46,299.62 173.35,296.8 173.24,295.91 163.95,294.86 164.06,295.75 						"/>
						<path class="st8" d="M168.34,298.73l4.9-2.82l-6.72-2.53c0,0-0.69,0.97-2.57,1.49L168.34,298.73z"/>
					</g>
					<g>
						<polygon class="st3" points="150.3,296.8 155.2,299.62 159.6,295.75 159.48,294.86 150.18,295.91 						"/>
						<path class="st8" d="M150.18,295.91l4.9,2.83l4.4-3.88c0,0-1.68-0.4-2.57-1.49L150.18,295.91z"/>
					</g>
					<g>
						<path class="st3" d="M158.37,300.39h6.92l-0.11-0.89c0,0-4.57-0.93-6.94,0L158.37,300.39z"/>
						<path class="st8" d="M158.24,299.5h6.94l-1.65-4.54c0,0-1.67,0.4-3.63,0L158.24,299.5z"/>
					</g>
				</g>
				<path class="st5" d="M190.78,288.54c3.61-2.08,3.61-5.49,0.01-7.57l-13.49-7.79c-3.61-2.08-9.51-2.08-13.12,0l-51.75,29.86
					l26.62,15.37L190.78,288.54z M129.11,297.71c5.39-3.11,14.13-3.12,19.52,0c5.37,3.11,5.38,8.15-0.01,11.26
					c-5.39,3.12-14.12,3.12-19.51,0C123.72,305.86,123.72,300.82,129.11,297.71z M152.03,284.47c5.39-3.11,14.13-3.12,19.52,0
					c5.37,3.11,5.38,8.15-0.01,11.26c-5.39,3.12-14.12,3.12-19.51,0C146.64,292.62,146.64,287.58,152.03,284.47z"/>
				<path class="st15" d="M160.69,275.18l1.16-0.66l19.36,11.18c3.53,2.04,3.53,5.36,0,7.4l-43.02,24.83l-1.16-0.67l43.01-24.83
					c2.9-1.67,2.9-4.38,0-6.05L160.69,275.18z"/>
				<polygon class="st4" points="108.16,312.23 112.42,303.04 139.04,318.4 123.12,320.87 				"/>
				<polygon class="st6" points="116.23,302.47 125.1,297.35 126.08,297.92 117.21,303.04 				"/>
				<path d="M123.12,320.87l-14.96-8.63v9.41l14.96,8.63V320.87z"/>
				<polygon class="st5" points="123.12,330.27 123.12,320.87 139.04,318.4 139.04,327.8 				"/>
				<g>
					<path class="st9" d="M187.83,285.52c-0.66,0.38-1.72,0.38-2.37,0c-0.65-0.38-0.65-0.99,0-1.37c0.65-0.38,1.71-0.38,2.37,0
						C188.48,284.53,188.48,285.14,187.83,285.52z"/>
					<path class="st15" d="M186.67,283.97L186.67,283.97h-1.35v0.79l0,0c0,0.2,0.14,0.39,0.39,0.54c0.53,0.3,1.38,0.31,1.9,0
						c0.27-0.15,0.4-0.35,0.39-0.55l0,0l0.01-0.77H186.67z"/>
					<path class="st14" d="M187.62,284.56c-0.52,0.3-1.38,0.3-1.9,0c-0.52-0.31-0.52-0.8,0-1.1c0.53-0.31,1.38-0.31,1.9,0
						C188.14,283.75,188.14,284.25,187.62,284.56z"/>
				</g>
			</g>
		</g>
	</g>
	<g>
		<polygon class="st23" points="71.81,306.78 51.56,295.09 51.56,294.23 92.06,294.23 92.06,295.09 		"/>
		<polygon class="st0" points="71.81,305.92 51.56,294.23 71.81,282.54 92.06,294.23 		"/>
		<path class="st24" d="M71.81,302.83l-14.89-8.6l14.89-8.6l14.89,8.6L71.81,302.83z M57.98,294.23l13.83,7.99l13.83-7.99
			l-13.83-7.99L57.98,294.23z"/>
		<g>
			<polygon class="st3" points="71.81,300.58 60.82,294.23 60.82,293.1 82.8,293.1 82.8,294.23 			"/>
			<polygon class="st7" points="71.81,299.45 60.82,293.1 71.81,286.76 82.8,293.1 			"/>
			<polygon class="st8" points="76.24,294.16 69.97,290.54 71.66,289.57 77.93,293.19 			"/>
			<polygon class="st8" points="73.28,297.08 64.92,292.25 67.17,290.95 75.53,295.78 			"/>
		</g>
		<g>
			<polygon class="st8" points="61.74,290.61 60.54,289.92 60.54,289.52 62.37,289.84 62.37,290.25 			"/>
			<polygon class="st7" points="61.74,290.21 60.54,289.52 61.17,289.15 62.37,289.84 			"/>
		</g>
		<g>
			<polygon class="st8" points="58.57,292.44 57.37,291.75 57.37,291.35 59.2,291.67 59.2,292.08 			"/>
			<polygon class="st7" points="58.57,292.04 57.37,291.35 58,290.98 59.2,291.67 			"/>
		</g>
		<g>
			<polygon class="st8" points="64.91,288.78 63.71,288.09 63.71,287.69 65.54,288.01 65.54,288.42 			"/>
			<polygon class="st7" points="64.91,288.38 63.71,287.69 64.34,287.32 65.54,288.01 			"/>
		</g>
		<g>
			<polygon class="st8" points="68.08,286.95 66.88,286.26 66.88,285.86 68.71,286.18 68.71,286.59 			"/>
			<polygon class="st7" points="68.08,286.55 66.88,285.86 67.51,285.49 68.71,286.18 			"/>
		</g>
		<g>
			<polygon class="st8" points="84.08,298.02 82.88,297.33 82.88,296.93 84.72,297.25 84.72,297.66 			"/>
			<polygon class="st7" points="84.08,297.62 82.88,296.93 83.52,296.56 84.72,297.25 			"/>
		</g>
		<g>
			<polygon class="st8" points="80.91,299.85 79.71,299.16 79.71,298.76 81.55,299.08 81.55,299.49 			"/>
			<polygon class="st7" points="80.91,299.45 79.71,298.76 80.35,298.39 81.55,299.08 			"/>
		</g>
		<g>
			<polygon class="st8" points="77.74,301.68 76.54,300.99 76.54,300.59 78.38,300.91 78.38,301.32 			"/>
			<polygon class="st7" points="77.74,301.28 76.54,300.59 77.18,300.22 78.38,300.91 			"/>
		</g>
	</g>
	<g>
		<g>
			<g>
				<path class="st11" d="M71.27,221.75l-4.75,2.74v-0.87l0.33-0.19l0.2-0.83l3.69-2.13l0.21,0.59l0.33-0.19V221.75z"/>
				<polygon class="st24" points="75.82,223.41 70.74,220.47 67.05,222.6 72.14,225.54 				"/>
				<polygon class="st24" points="71.93,226.37 66.85,223.43 66.52,223.62 71.6,226.55 				"/>
				<polygon class="st24" points="76.35,223.81 71.27,220.88 70.95,221.07 76.03,224 				"/>
				<path class="st11" d="M76.35,224.69l-4.75,2.74v-0.88l0.33-0.19l0.21-0.83l3.69-2.13l0.2,0.59l0.33-0.19V224.69z"/>
				<polygon class="st11" points="71.6,227.43 66.52,224.5 66.52,223.62 71.6,226.55 				"/>
				<polygon class="st11" points="71.93,226.37 66.85,223.43 67.05,222.6 72.14,225.54 				"/>
			</g>
			<g>
				<polygon class="st3" points="83.36,225.91 85.44,229.13 83.35,230.34 77.77,229.14 71.02,225.24 76.61,222.01 				"/>
				<polygon class="st5" points="77.77,232.44 71.02,228.55 71.02,225.24 77.77,229.14 				"/>
				<polygon class="st4" points="83.35,233.65 77.77,232.44 77.77,229.14 83.35,230.34 				"/>
				<polygon points="85.44,232.44 83.35,233.65 83.35,230.34 85.44,229.13 				"/>
			</g>
			<g>
				<path class="st5" d="M86.81,234.25l1.32-2.19l-3.09-1.81l0,0c-0.17-0.09-0.39-0.08-0.64,0.06c-0.5,0.29-0.91,0.99-0.91,1.57
					c0,0.28,0.1,0.48,0.25,0.58L86.81,234.25z"/>
				<path d="M87.45,232.1c0.5-0.29,0.91-0.05,0.91,0.52c0,0.58-0.41,1.28-0.91,1.57c-0.5,0.29-0.9,0.05-0.9-0.52
					C86.55,233.09,86.95,232.39,87.45,232.1z"/>
			</g>
			<path class="st4" d="M91.7,235.67c-1.52,0-3.09-0.51-4.76-1.64c-0.33-0.22-0.28-0.77,0.03-1.24c0.31-0.47,0.74-0.7,1.04-0.5
				c1.92,1.31,3.6,1.64,5.1,1.08c4.74-1.78,7.67-12.61,10.26-22.17c2.72-10.04,5.29-19.53,10.1-21.67c1.55-0.69,3.23-0.59,4.99,0.29
				c0.5,0.25,0.71,0.87,0.45,1.37c-0.25,0.5-0.87,0.71-1.37,0.45c-1.2-0.61-2.26-0.69-3.24-0.25c-3.92,1.75-6.48,11.2-8.96,20.34
				c-2.98,11-5.79,21.39-11.51,23.54C93.15,235.54,92.43,235.67,91.7,235.67z"/>
			<g>
				<path class="st8" d="M122.4,177.21c-0.14-0.09-0.34-0.08-0.56,0.05l-5.1,2.94c-0.44,0.25-0.79,0.87-0.79,1.37
					c0,0,0.1,18.56,0.25,18.64l16.43,9.42l6.34-22.86L122.4,177.21z"/>
				<polygon class="st5" points="126.31,191.88 118.06,187.11 118.06,186.1 126.31,190.87 				"/>
				<path class="st5" d="M138.43,186.84c0.43-0.25,0.79-0.04,0.79,0.46v18.12c0,0.5-0.36,1.12-0.79,1.37l-5.1,2.95
					c-0.43,0.25-0.79,0.05-0.79-0.45v-18.12c0-0.5,0.36-1.12,0.79-1.37L138.43,186.84z"/>
			</g>
			<g>
				<g>
					<path class="st10" d="M136.25,207.07l1.21-2l-1.07-0.62l0,0c-0.15-0.08-0.36-0.07-0.58,0.06c-0.46,0.26-0.83,0.91-0.83,1.43
						c0,0.26,0.09,0.44,0.23,0.53L136.25,207.07z"/>
					<path class="st11" d="M136.84,205.1c0.46-0.26,0.83-0.05,0.83,0.48c0,0.53-0.37,1.17-0.83,1.43c-0.45,0.26-0.83,0.05-0.83-0.48
						C136.01,206,136.39,205.36,136.84,205.1z"/>
					<path class="st4" d="M136.84,205.37c0.33-0.19,0.59-0.04,0.59,0.34s-0.26,0.84-0.59,1.02c-0.32,0.19-0.59,0.04-0.59-0.34
						C136.25,206.02,136.52,205.56,136.84,205.37z"/>
				</g>
				<g>
					<path class="st10" d="M139.4,191.46l-1.06-0.61c-0.14-0.08-0.35-0.04-0.58,0.13l-3.86,2.88c-0.43,0.32-0.78,0.99-0.78,1.5v8.82
						c0,0.27,0.11,0.47,0.27,0.57v0l1.05,0.61l0.34-0.95l2.98-1.22c0.43-0.18,0.78-0.73,0.78-1.23v-8.1L139.4,191.46z"/>
					<path class="st11" d="M138.81,191.58c0.43-0.32,0.78-0.17,0.78,0.33v10.64c0,0.5-0.35,1.06-0.78,1.23l-3.86,1.58
						c-0.43,0.18-0.78-0.09-0.78-0.59v-8.82c0-0.5,0.35-1.17,0.78-1.5L138.81,191.58z"/>
					<path class="st3" d="M138.57,192.47c0.38-0.28,0.69-0.15,0.69,0.29v9.33c0,0.44-0.31,0.92-0.69,1.08l-3.38,1.38
						c-0.38,0.15-0.68-0.08-0.68-0.52v-7.73c0-0.44,0.31-1.03,0.68-1.31L138.57,192.47z"/>
					<path class="st4" d="M135.31,202.64c0.2-0.11,0.35-0.02,0.35,0.2c0,0.23-0.16,0.5-0.35,0.61c-0.19,0.11-0.35,0.02-0.35-0.2
						C134.95,203.03,135.11,202.76,135.31,202.64z"/>
					<path class="st4" d="M135.31,200.82c0.2-0.12,0.35-0.02,0.35,0.2c0,0.22-0.16,0.5-0.35,0.61c-0.19,0.11-0.35,0.02-0.35-0.2
						C134.95,201.21,135.11,200.93,135.31,200.82z"/>
					<path class="st4" d="M135.31,199c0.2-0.11,0.35-0.02,0.35,0.2c0,0.22-0.16,0.5-0.35,0.61c-0.19,0.11-0.35,0.02-0.35-0.2
						C134.95,199.39,135.11,199.11,135.31,199z"/>
					<path class="st4" d="M135.31,197.18c0.2-0.11,0.35-0.02,0.35,0.2c0,0.23-0.16,0.5-0.35,0.61c-0.19,0.11-0.35,0.02-0.35-0.2
						C134.95,197.56,135.11,197.29,135.31,197.18z"/>
					<path class="st4" d="M135.31,195.35c0.2-0.11,0.35-0.02,0.35,0.2c0,0.23-0.16,0.5-0.35,0.61c-0.19,0.11-0.35,0.02-0.35-0.2
						S135.11,195.47,135.31,195.35z"/>
					<path class="st4" d="M138.3,200.92c0.2-0.11,0.35-0.02,0.35,0.2c0,0.23-0.16,0.5-0.35,0.61c-0.2,0.11-0.35,0.02-0.35-0.2
						C137.94,201.3,138.1,201.03,138.3,200.92z"/>
					<path class="st4" d="M138.3,199.1c0.2-0.11,0.35-0.02,0.35,0.2c0,0.22-0.16,0.5-0.35,0.61c-0.2,0.11-0.35,0.02-0.35-0.2
						S138.1,199.21,138.3,199.1z"/>
					<path class="st4" d="M138.3,197.27c0.2-0.11,0.35-0.02,0.35,0.2s-0.16,0.5-0.35,0.61c-0.2,0.11-0.35,0.02-0.35-0.2
						S138.1,197.39,138.3,197.27z"/>
					<path class="st4" d="M138.3,195.45c0.2-0.11,0.35-0.02,0.35,0.2c0,0.22-0.16,0.5-0.35,0.61c-0.2,0.12-0.35,0.02-0.35-0.2
						C137.94,195.84,138.1,195.56,138.3,195.45z"/>
					<path class="st4" d="M138.3,193.63c0.2-0.11,0.35-0.02,0.35,0.2c0,0.23-0.16,0.5-0.35,0.61c-0.2,0.11-0.35,0.02-0.35-0.2
						C137.94,194.02,138.1,193.74,138.3,193.63z"/>
					<path class="st4" d="M136.84,202.57c0.2-0.11,0.35-0.02,0.35,0.2c0,0.23-0.16,0.5-0.35,0.61c-0.19,0.11-0.35,0.02-0.35-0.2
						C136.49,202.95,136.65,202.68,136.84,202.57z"/>
					<path class="st4" d="M136.84,200.74c0.2-0.11,0.35-0.02,0.35,0.21c0,0.22-0.16,0.5-0.35,0.61c-0.19,0.11-0.35,0.02-0.35-0.21
						C136.49,201.13,136.65,200.86,136.84,200.74z"/>
					<path class="st4" d="M136.84,198.92c0.2-0.11,0.35-0.02,0.35,0.2s-0.16,0.5-0.35,0.61c-0.19,0.11-0.35,0.02-0.35-0.21
						C136.49,199.31,136.65,199.04,136.84,198.92z"/>
					<path class="st4" d="M136.84,197.1c0.2-0.11,0.35-0.02,0.35,0.21c0,0.22-0.16,0.5-0.35,0.61c-0.19,0.11-0.35,0.02-0.35-0.2
						C136.49,197.49,136.65,197.21,136.84,197.1z"/>
					<path class="st4" d="M136.84,195.28c0.2-0.11,0.35-0.02,0.35,0.2c0,0.23-0.16,0.5-0.35,0.61c-0.19,0.11-0.35,0.02-0.35-0.21
						C136.49,195.67,136.65,195.39,136.84,195.28z"/>
				</g>
				<g>
					<path class="st10" d="M136.25,192.82l1.21-2l-1.07-0.62l0,0c-0.15-0.09-0.36-0.07-0.58,0.06c-0.46,0.26-0.83,0.91-0.83,1.43
						c0,0.26,0.09,0.44,0.23,0.53L136.25,192.82z"/>
					<path class="st11" d="M136.84,190.85c0.46-0.26,0.83-0.05,0.83,0.48c0,0.53-0.37,1.17-0.83,1.43
						c-0.45,0.26-0.83,0.05-0.83-0.48C136.01,191.75,136.39,191.11,136.84,190.85z"/>
					<path class="st4" d="M136.84,191.12c0.33-0.19,0.59-0.04,0.59,0.34c0,0.38-0.26,0.83-0.59,1.02c-0.32,0.19-0.59,0.04-0.59-0.34
						C136.25,191.77,136.52,191.31,136.84,191.12z"/>
				</g>
			</g>
			<path class="st16" d="M122.4,177.21c-0.14-0.09-0.34-0.08-0.56,0.05l-5.1,2.94c-0.44,0.25-0.79,0.87-0.79,1.37l16.29,9.04
				c3.78-2.16,6.73-3.84,6.73-3.84L122.4,177.21z"/>
		</g>
	</g>
</g>
</svg>
