<svg xmlns="http://www.w3.org/2000/svg" viewBox="0 0 89.62 81.32"><defs><style>.cls-1{opacity:0.5;}.cls-2{fill:#040000;}</style></defs><g id="圖層_1" data-name="圖層 1"><g class="cls-1"><path class="cls-2" d="M28.23,44.56H24.78a5.25,5.25,0,0,0-5.25,5.25V76.07a5.25,5.25,0,0,0,5.25,5.25h3.45a2.63,2.63,0,0,0,2.63-2.63V47.18A2.62,2.62,0,0,0,28.23,44.56Z"/><path class="cls-2" d="M64.84,44.56H61.39a2.62,2.62,0,0,0-2.63,2.62V78.69a2.63,2.63,0,0,0,2.63,2.63h3.45a5.26,5.26,0,0,0,5.26-5.25V49.81A5.26,5.26,0,0,0,64.84,44.56Z"/><path class="cls-2" d="M44.81,0A44.84,44.84,0,0,0,0,44.64V69.8a7.89,7.89,0,0,0,7.88,7.88h6.3l.08-31.57H11.92a7,7,0,0,0-2.34.43V43.77a35.23,35.23,0,0,1,70.46,0v2.77a6.94,6.94,0,0,0-2.34-.43H75.36l0,31.57h6.35a7.89,7.89,0,0,0,7.88-7.88V44.64A44.84,44.84,0,0,0,44.81,0Z"/></g></g></svg>