<svg xmlns="http://www.w3.org/2000/svg" viewBox="0 0 106.71 81.94"><defs><style>.cls-1{fill:#040000;fill-rule:evenodd;opacity:0.5;}</style></defs><g id="圖層_1" data-name="圖層 1"><path class="cls-1" d="M106.25,61,97,21.54A28,28,0,0,0,69.77,0H36.94A28,28,0,0,0,9.74,21.54L.46,61a17.07,17.07,0,0,0,16.62,21,13.47,13.47,0,0,0,11.48-6.5l7.15-11.91a6.81,6.81,0,0,1,5.83-3.3H65.17A6.81,6.81,0,0,1,71,63.53l7.15,11.91a13.47,13.47,0,0,0,11.49,6.5A17.07,17.07,0,0,0,106.25,61ZM43.91,35.55H39.13v4.78a4.18,4.18,0,1,1-8.36,0V35.55H26a4.18,4.18,0,0,1,0-8.36h4.78V22.41a4.18,4.18,0,1,1,8.36,0v4.78h4.78a4.18,4.18,0,1,1,0,8.36Zm18.89,0A4.18,4.18,0,1,1,67,31.37,4.18,4.18,0,0,1,62.8,35.55Zm9,9a4.18,4.18,0,1,1,4.18-4.18A4.18,4.18,0,0,1,71.76,44.51Zm0-17.92a4.18,4.18,0,1,1,4.18-4.18A4.18,4.18,0,0,1,71.76,26.59Zm9,9a4.18,4.18,0,1,1,4.18-4.18A4.18,4.18,0,0,1,80.72,35.55Z"/></g></svg>