<svg xmlns="http://www.w3.org/2000/svg" viewBox="0 0 92.95 88.09"><defs><style>.cls-1{fill:#040000;opacity:0.5;}</style></defs><g id="圖層_1" data-name="圖層 1"><path class="cls-1" d="M88.09,44A44,44,0,1,0,44,88.09H93V80.75H68.36A44.08,44.08,0,0,0,88.09,44ZM64.94,72.72a10.66,10.66,0,1,1,2.35-14.89A10.67,10.67,0,0,1,64.94,72.72Zm-.53-46.58a10.66,10.66,0,1,1-6.84,13.43A10.66,10.66,0,0,1,64.41,26.14ZM44,8.42A10.67,10.67,0,1,1,33.38,19.08,10.67,10.67,0,0,1,44,8.42ZM10.24,33a10.66,10.66,0,1,1,6.84,13.44A10.67,10.67,0,0,1,10.24,33ZM38,70.36a10.66,10.66,0,1,1-2.35-14.89A10.65,10.65,0,0,1,38,70.36ZM40.37,44A3.67,3.67,0,1,1,44,47.71,3.68,3.68,0,0,1,40.37,44Z"/></g></svg>