<svg xmlns="http://www.w3.org/2000/svg" viewBox="0 0 90.66 87.89"><defs><style>.cls-1{opacity:0.5;}.cls-2{fill:#040000;}</style></defs><g id="圖層_1" data-name="圖層 1"><g class="cls-1"><path class="cls-2" d="M60.41,54.43H51.29s-4.9-10-9.95-10-9.94,10-9.94,10H21.16a21.2,21.2,0,0,1,0-42.4H60.41a21.2,21.2,0,0,1,0,42.4Z"/><path class="cls-2" d="M57.19,87.85V73.32h-.46a7.5,7.5,0,0,1-7.5-7.51H34.65v2.07a20,20,0,0,0,20,20Z"/><path class="cls-2" d="M76.09,0V11.81a25.9,25.9,0,0,1,0,43.4v8.56a9.56,9.56,0,0,1-9.55,9.55H63.79V87.89h5.29A21.58,21.58,0,0,0,90.66,66.31V0Z"/></g></g></svg>