<svg xmlns="http://www.w3.org/2000/svg" viewBox="0 0 84.88 84.74"><defs><style>.cls-1{opacity:0.5;}.cls-2{fill:#040000;}</style></defs><g id="圖層_1" data-name="圖層 1"><g class="cls-1"><path class="cls-2" d="M11.64,0h61.6a2.22,2.22,0,0,1,2.22,2.22v8.41a0,0,0,0,1,0,0h-66a0,0,0,0,1,0,0V2.22A2.22,2.22,0,0,1,11.64,0Z"/><path class="cls-2" d="M74,15.29H10.85A36.82,36.82,0,0,0,2.2,53.92l8.45,23.37a11.29,11.29,0,0,0,10.62,7.45H63.61a11.28,11.28,0,0,0,10.61-7.45l8.46-23.37A36.82,36.82,0,0,0,74,15.29ZM64.17,73.57a9.45,9.45,0,0,1-13.11,2.66l-6-3.94,2.46-2.43a2.91,2.91,0,0,0-4.09-4.14L40.14,69l-.89-.59A69,69,0,0,1,26.17,57.14L29,54.38a2.91,2.91,0,1,0-4.09-4.14l-2.44,2.41c-.64-.84-1.26-1.69-1.86-2.56L12.76,38.8A9.46,9.46,0,1,1,28.32,28l1.8,2.61-3.56,3.52a2.91,2.91,0,1,0,4.09,4.15l2.84-2.81.57.82a68.86,68.86,0,0,0,10.54,12l-2.91,2.86a2.92,2.92,0,0,0,4.1,4.15l3.32-3.29c1.19.9,2.39,1.78,3.63,2.6l8.77,5.81A9.47,9.47,0,0,1,64.17,73.57Zm5-23.63a4.82,4.82,0,0,1-6.76-.81l-3.31-4.22A35.38,35.38,0,0,0,49,36.18l-4.45-2.57a4.82,4.82,0,0,1,4.82-8.34l6.06,3.5A35.38,35.38,0,0,1,65.48,37.5l4.46,5.67A4.82,4.82,0,0,1,69.12,49.94Z"/></g></g></svg>