<svg xmlns="http://www.w3.org/2000/svg" viewBox="0 0 237.31 55.68"><defs><style>.cls-1{opacity:0.5;}</style></defs><g id="圖層_1" data-name="圖層 1"><g id="m0AHoW.tif" class="cls-1"><path d="M36.2,0c.57.13,1.13.27,1.71.38a13.2,13.2,0,0,1,9.73,7.36q2.89,5.7,5.82,11.36c1.3,2.52,2.63,5,3.93,7.52,1.14,2.2,2.24,4.42,3.37,6.62l5,9.69a5.35,5.35,0,0,0,5,3.18h3.31a10.29,10.29,0,0,1,.14,2.68c0,.91,0,1.82,0,2.72a10.59,10.59,0,0,1-.1,2.58,1,1,0,0,1-.33.13,25.54,25.54,0,0,1-6.05-.33,12.68,12.68,0,0,1-8.06-5.4,18.71,18.71,0,0,1-1.17-2C56.64,43,54.82,39.37,53,35.8q-4.14-8.05-8.29-16.11c-1.42-2.76-2.85-5.51-4.25-8.28A5.78,5.78,0,0,0,34.89,8H32C32,5.28,32,2.64,32,0Z"/><path d="M26.11,0V7.94c-1,0-1.94,0-2.84,0a4.9,4.9,0,0,0-4.55,2.67,17,17,0,0,0-2.34,7,13,13,0,0,1-2.51,6.56,26.59,26.59,0,0,1-1.85,2c-.31.32-.66.61-1.07,1l1.52,1.52A12.13,12.13,0,0,1,16,34.9a26.63,26.63,0,0,0,1.3,5.37,15.85,15.85,0,0,0,3.21,5.22,2.85,2.85,0,0,0,2.06.84h2.95a2.44,2.44,0,0,1,.39.06A47,47,0,0,1,26,53.94a1.26,1.26,0,0,1-.36.1c-1.58,0-3.16.08-4.72,0a8.31,8.31,0,0,1-4.06-1.58,15.49,15.49,0,0,1-4-4.1A21.35,21.35,0,0,1,9.5,40.74,29,29,0,0,1,8.77,37,6,6,0,0,0,7,33.4a51.13,51.13,0,0,0-5.34-4.85L0,27.19,1.37,26c.88-.75,1.78-1.47,2.63-2.24A30.19,30.19,0,0,0,7.65,20.2a7.41,7.41,0,0,0,1.23-3.49c.22-1.23.44-2.47.74-3.68a21.08,21.08,0,0,1,4.14-8.25,11.74,11.74,0,0,1,6-4.31c.47-.13,1-.16,1.44-.25.29-.06.58-.15.88-.22Z"/><path d="M84.11,0a1.48,1.48,0,0,0,.45.2,10.49,10.49,0,0,1,7.23,3.93,21.37,21.37,0,0,1,3.5,5.43,22.81,22.81,0,0,1,2,7.42,6.58,6.58,0,0,0,2.15,4.29c1.56,1.49,3.21,2.88,4.83,4.31.57.51,1.17,1,1.86,1.56l-1.28,1.08c-.91.77-1.84,1.5-2.71,2.31a28.5,28.5,0,0,0-3.78,3.75,6,6,0,0,0-1.06,3.12,24.24,24.24,0,0,1-1.79,6.84A21.54,21.54,0,0,1,92,50a11.86,11.86,0,0,1-6.38,4H80.3a43.51,43.51,0,0,1-.09-7.58,6.41,6.41,0,0,1,.78-.09c.81,0,1.61,0,2.42,0A3.07,3.07,0,0,0,86,45.17a15.89,15.89,0,0,0,2.73-4.56,20.29,20.29,0,0,0,1.13-4.43,12.41,12.41,0,0,1,3.32-7l2-2.06-.77-.66a13.93,13.93,0,0,1-4.56-8c-.28-1.33-.4-2.68-.71-4a11.59,11.59,0,0,0-2.22-4.57,4.56,4.56,0,0,0-4-2c-.89.06-1.8,0-2.83,0V0Z"/><path d="M74.23,0V7.93L73,8c-1,0-2.1,0-3.14.16A4.93,4.93,0,0,0,66,10.92c-1.49,2.81-2.91,5.65-4.37,8.46-.56,1.08-1.13,2.14-1.79,3.38-1.65-2.91-3-5.79-4.49-8.61a1.44,1.44,0,0,1,.05-.33c1.24-2.42,2.38-4.9,3.76-7.24A12.67,12.67,0,0,1,67.1.63C67.93.41,68.77.21,69.61,0Z"/><path d="M229.29,45.72h-1.37c-.1,4.9-2.49,8.17-7,10L219,53.33c.34-.17.66-.35,1-.5a9.24,9.24,0,0,0,3.22-2.11,7.84,7.84,0,0,0,1.83-4.93,7.4,7.4,0,0,0-2.57-.06c0,.42.07.79.05,1.16-.08,1.61-.71,2.85-2.65,3.06-.38,0-.76.11-1.15.13a3.38,3.38,0,0,1-.67-.06l-.59-2.83,2.06-.09c.36-2.42-.85-4.17-2.36-5.86V55.51a19.13,19.13,0,0,1-2.63,0l-.12-.12s-.06-.05-.06-.08c0-.31,0-.62,0-.93,0-7.16,0-14.31,0-21.58h7.5l1.4,1.66h4.61c-.31-.62-.56-1.14-.83-1.69a6.68,6.68,0,0,1,2.3-1,8.35,8.35,0,0,1,1.52,2.7h5.93v5.76a6.06,6.06,0,0,1-2.79.08c-.45-.93-.09-2-.24-3h-8.8c0,.94-.05,1.86-.07,2.75a6.07,6.07,0,0,1-2.78.1c-.29-.44-.07-.94-.11-1.41a9.52,9.52,0,0,0-.12-1.48l-1.36,3.24c.72,1.65,1.37,3.16,2.08,4.81V42.89h14.26a21.07,21.07,0,0,1,.06,2.78h-4.47a35.2,35.2,0,0,0-.09,6.7,1.84,1.84,0,0,0,1.86-.16c.64-1,.09-2.27.6-3.4l2.52.91a12.23,12.23,0,0,1-.67,4,2.22,2.22,0,0,1-1.81,1.42,11.3,11.3,0,0,1-4.06,0,1.73,1.73,0,0,1-1.47-1.88c0-1.47,0-2.94,0-4.4Zm-12.06-5,.21.06a40.47,40.47,0,0,0,1.88-5.11h-2.09Z"/><path d="M168.27,42.6c.52.26.83.4,1.14.57s.77.46,1.24.76l-2.86,5.83,1.05,2c.62-1,.12-2.06.53-3.09l2.15,1.5c-.15.95-.26,1.85-.43,2.73a3.73,3.73,0,0,1-.45,1.16,1.69,1.69,0,0,1-2.8.53,13.69,13.69,0,0,1-1.57-1.81,7,7,0,0,1-.39-.65,24.7,24.7,0,0,1-3.79,3.44l-1.87-2.09.7-.65H158l-.14,1.48a6.5,6.5,0,0,1-2.45,0V43.1a51.5,51.5,0,0,1,7.67,0v8.25l1.64-1.81c-.33-2.65-.64-5-.94-7.5h-9a4.59,4.59,0,0,1,0-2.61l1.69-.09-.19-1.73a5.39,5.39,0,0,1,2.37-.07l.32,1.82h.52a4,4,0,0,0,.52-2.45l-4.75-.09V34.35h2.68l-.57-1.5a8.13,8.13,0,0,1,2.57-.89l1.1,2.39h2.52v2.38l-.89.14-.6,2.44h1.69v-7a11.14,11.14,0,0,1,2.82,0v7a37.59,37.59,0,0,0,4.24-.06,6.51,6.51,0,0,1,0,2.78l-4.17-.15.27,3.94.19,0c.22-.51.45-1,.65-1.53S168.05,43.26,168.27,42.6Zm-7.9,7.65v-4.9a7.32,7.32,0,0,0-2.39,0v1.35h1.87a3.31,3.31,0,0,1-.11,2.2l-1.77.13v1.19Z"/><path d="M198.26,40.62V38.45l2.55-.14v-.22c-.77-.38-1.65,0-2.49-.23a4.37,4.37,0,0,1,0-2.13l2.76-.15c-.59-.59-1.13-.35-1.59-.39s-1,0-1.61,0a10.24,10.24,0,0,1-.11-2.4h6.08c-.05.95-.08,1.88-.14,2.8s-.16,1.8-.19,2.71,0,1.87,0,2.89h1.57v4.88a12.17,12.17,0,0,1-2.84,0V43.8c-.88-.22-14.58-.3-16.78-.11l-.1,2.34a9.15,9.15,0,0,1-2.81,0V41.23c.49-.46,1.1.2,1.76-.13-.06-1.22-.13-2.5-.19-3.77s-.11-2.49-.17-3.73l5.16-1.46,1.22,2.14-3.62,1.16c.81.52,1.63.25,2.47.29a3.55,3.55,0,0,1,.13,2.14c-.79.24-1.6,0-2.34.18v.26l2.24.12a3,3,0,0,1,0,2.21H187c0,.48.19.58.51.58h3.32l-1.15-1.53,2.3-.84L190.55,38l.65-.84-1.39-1.82,2.14-.81-1.56-.93,1.23-1.37c1,0,1.59.82,2.55,1L195.79,32l1.75,1.41-1.47,1.17,1.22,1-1,1.22,1.1,1-1.26,1.12,1.34,1c-.23.24-.38.42-.55.57s-.38.3-.63.49a12.87,12.87,0,0,0,4.33.12c.15-.31,0-.47-.29-.48C199.66,40.61,199,40.62,198.26,40.62Zm-4.17-2.94,1.07-1L194,35.82l-1.68.91ZM192.26,41v.15h3.22l-1.42-1Z"/><path d="M46.35,31.46l4.51,8.84c-.45.89-.86,1.73-1.29,2.57-.75,1.46-1.46,2.93-2.27,4.35A13.11,13.11,0,0,1,38.07,54a22.23,22.23,0,0,1-6,.19v-8c.36,0,.69-.08,1-.09.77,0,1.54,0,2.31,0a5.35,5.35,0,0,0,5-3.18c1.72-3.43,3.49-6.83,5.24-10.25C45.84,32.33,46.05,32,46.35,31.46Z"/><path d="M119.4,34.58h2.83a12.13,12.13,0,0,1,0,3.13,12.62,12.62,0,0,0,3.32-5.95,10.53,10.53,0,0,1,3.12.54L128,34.14h7.46a4.15,4.15,0,0,1,.05,3h-1.78L131.12,42A17.23,17.23,0,0,0,136.31,44l-1.63,2.77A17.65,17.65,0,0,1,128.9,44l-4.11,2.34a14,14,0,0,1,3,3.22l-2,1.69-3.16-3.6a5.39,5.39,0,0,1,.43-.39,5.13,5.13,0,0,1,.51-.33c-.86-.39-.84-1.35-1.54-2h-2.57V34.58ZM125,39.84l1.76-2a7.51,7.51,0,0,0,1.94,2.21,6.55,6.55,0,0,0,1.68-2.95h-4c-.53.64-1,1.28-1.55,1.88a5.85,5.85,0,0,1-1.78,1.72l-.38-.42-.38-.4v4A14.89,14.89,0,0,0,126.66,42c-.32-.4-.59-.72-.84-1.05S125.3,40.22,125,39.84Z"/><path d="M192.55,15.46c-.05,3.29-.09,6.36-.13,9.43,0,.05-.08.11-.16.22H190c0-.32-.08-.62-.08-.92,0-5-.06-10,0-15a8.53,8.53,0,0,1,4.48-7.56A9.05,9.05,0,0,1,205,16.23a9.17,9.17,0,0,1-5.81,2.35,7.75,7.75,0,0,1-5.65-2.12C193.26,16.18,193,15.88,192.55,15.46Zm-.05-6a6.36,6.36,0,0,0,6.43,6.65,6.58,6.58,0,0,0,6.61-6.57,6.59,6.59,0,0,0-6.16-6.69A6.33,6.33,0,0,0,192.5,9.47Z"/><path d="M226.38,5.84c-4.2,2.52-8.57,4.91-12.83,7.46.58,1.66,2.88,2.91,5.22,2.81,2.52-.11,5.31-1.6,6.4-5.7l2.3-1.32a2.78,2.78,0,0,1,.09,1.85,9.46,9.46,0,0,1-9,7.64,8.2,8.2,0,0,1-5-1.57,9,9,0,0,1-4.08-7.1,8.31,8.31,0,0,1,3.13-7.32,8.59,8.59,0,0,1,9.21-1.49,8.88,8.88,0,0,1,4.42,4,1.84,1.84,0,0,1,.17.38A1.13,1.13,0,0,1,226.38,5.84Zm-14,5.51A120.85,120.85,0,0,0,223,5.15a6.21,6.21,0,0,0-10.58,6.2Z"/><path d="M161.85,5.84l-13,7.54a5.93,5.93,0,0,0,6,2.67,6.71,6.71,0,0,0,5.68-5.58l2.36-1.37a2.51,2.51,0,0,1,0,2.13,9.25,9.25,0,0,1-8.82,7.34,8.2,8.2,0,0,1-5.8-2.06A9.12,9.12,0,0,1,144.87,10a8.57,8.57,0,0,1,3.79-7.93A8.42,8.42,0,0,1,153.55.41a8.77,8.77,0,0,1,7.51,3.85c.27.37.5.76.74,1.15A2.15,2.15,0,0,1,161.85,5.84Zm-3.35-.59A6.33,6.33,0,0,0,150.12,4c-2.34,1.57-3.48,5.14-2.25,7.43C151.41,9.35,155,7.34,158.5,5.25Z"/><path d="M196.81,48.61H205a10.51,10.51,0,0,1,.14,2.71c-1.1.13-2.14,0-3.17,0s-2.17,0-3.26,0h-3.18c0,.32-.09.56-.11.79s0,.56,0,.84c-.1,1.77-.85,2.53-2.63,2.59-1.07,0-2.16,0-3.31,0l-.66-2.78c.64.07,1.18.15,1.72.17s1.09,0,1.72,0V51.36c-1.07-.08-2.14,0-3.21,0h-6.53a8.6,8.6,0,0,1,0-2.68h9.83l.09-.85,2.69-.77,0-.17h-8.39a7.16,7.16,0,0,1,0-2.53h13l1.44,1.61Z"/><path d="M143,5.4h-2.15c-.09-.22-.17-.44-.27-.65a5.75,5.75,0,0,0-.52-1c-1-1.32-4.3-1.39-5.41,0A2.22,2.22,0,0,0,135,7a7.67,7.67,0,0,0,2.2.93,22.46,22.46,0,0,1,3.87,1.27,4.51,4.51,0,0,1,2.64,4.3A4.45,4.45,0,0,1,141,17.77a7.61,7.61,0,0,1-7.25-.15,4.66,4.66,0,0,1-2.57-4.28,4.79,4.79,0,0,1,2.25-.07c.09.1.16.15.17.2a3.06,3.06,0,0,0,2.69,2.68,5.27,5.27,0,0,0,3.09-.22,2.52,2.52,0,0,0,1.75-2.38,2.36,2.36,0,0,0-1.51-2.42,27.39,27.39,0,0,0-3-1A11,11,0,0,1,133.4,8.8a4.43,4.43,0,0,1-.15-7.1,7.13,7.13,0,0,1,7.8-.24A4.19,4.19,0,0,1,143,5.4Z"/><path d="M189.29,18.2h-2.95c-1.73-2.25-3.48-4.54-5.32-6.95l-5.32,7h-2.81c1.07-1.74,2.26-3.13,3.34-4.6s2.19-3,3.31-4.48c-2-2.79-4.11-5.47-6.15-8.33a8.05,8.05,0,0,1,2.73-.16Z"/><path d="M119.41,34.56a19.39,19.39,0,0,0-1,1.7,2.91,2.91,0,0,0-.24,1.21c0,2.75,0,5.5,0,8.25v.81a5.73,5.73,0,0,1-3,0V40.77l-1.63,1.5-1.42-2.89a16.71,16.71,0,0,0,4.91-7.44,5.1,5.1,0,0,1,3,.72l-.7,1.92Z"/><path d="M118.78,47h3v5.15a3.33,3.33,0,0,0,1,.34c1.62,0,3.28.29,4.78-.29.76-.77.27-1.71.65-2.56l2.83.73a8.38,8.38,0,0,1-.58,3.39,2.24,2.24,0,0,1-2,1.33c-1.57.1-3.14.19-4.71.2a21.85,21.85,0,0,1-3.13-.21,1.8,1.8,0,0,1-1.8-1.85C118.73,51.2,118.78,49.15,118.78,47Z"/><path d="M231.45,18.21H229a6.81,6.81,0,0,1-.1-.84c0-3,0-5.93,0-8.89A10.08,10.08,0,0,1,230,4.05a6.32,6.32,0,0,1,6.8-3.28V2.86c-.61.1-1.22.16-1.82.31a4,4,0,0,0-3,2.67,9.77,9.77,0,0,0-.58,3.38q0,3.89,0,7.75Z"/><path d="M166.91,18.21h-2.43a6.31,6.31,0,0,1-.1-.82c0-3-.07-5.94,0-8.9A8.74,8.74,0,0,1,166,3.26,6.67,6.67,0,0,1,172.11.63a3.56,3.56,0,0,1,.09,2.23c-.56.1-1.11.17-1.65.28a4.26,4.26,0,0,0-3.37,3.47,9.58,9.58,0,0,0-.26,2.27c0,2.69,0,5.38,0,8.07Z"/><path d="M127.34.74h2.34c0,.38.09.68.09,1,0,2.89,0,5.79,0,8.69a8.62,8.62,0,0,1-2,5.81,6.77,6.77,0,0,1-4.7,2.23,4.57,4.57,0,0,1,0-2.35l.9-.29A4.09,4.09,0,0,0,126.74,13a11.7,11.7,0,0,0,.46-2.87c.06-2.69,0-5.37,0-8.06C127.23,1.66,127.3,1.22,127.34.74Z"/><path d="M147.88,47.09h6.23a57.91,57.91,0,0,1,.11,8.09,5.62,5.62,0,0,1-2.13.12l-.23-.92h-1.61l-.19,1.28h-2.14A69.74,69.74,0,0,1,147.88,47.09Zm4,4.78V49.54h-1.64v2.33Z"/><path d="M120.94,18.46a6.74,6.74,0,0,1-5.22-2.92,8.23,8.23,0,0,1-1.39-4.64c0-3.07,0-6.14,0-9.21,0-.28,0-.55.06-.87a4.35,4.35,0,0,1,2.35,0c0,.4,0,.77,0,1.14,0,2.59,0,5.17,0,7.75a13,13,0,0,0,.36,2.78,4.41,4.41,0,0,0,3.38,3.49,2.9,2.9,0,0,1,.5.2A4.81,4.81,0,0,1,120.94,18.46Z"/><path d="M147.36,38.67V36h3.41l-2.18-2.53,1.8-1.66a12,12,0,0,1,3.06,3.1l-1,1h2.07a5.28,5.28,0,0,1,.06,2.69Z"/><path d="M129.93,48.19,132.29,47c.88.57,3.11,4.2,3.75,6.1a13.62,13.62,0,0,1-2.65,1.51c-.54-1.13-1-2.23-1.59-3.28S130.6,49.31,129.93,48.19Z"/><path d="M233.26,41.46h-7.72a9.42,9.42,0,0,1,0-2.6h7.68A8.32,8.32,0,0,1,233.26,41.46Z"/><path d="M114.88,54.91l-2.53-1.79a13.52,13.52,0,0,0,2.53-5.79,12.42,12.42,0,0,1,2.69,1A15.13,15.13,0,0,1,114.88,54.91Z"/><path d="M182.29,5.51,185.91.74h2.75a26.41,26.41,0,0,1-2.4,3.39c-.77,1.11-1.61,2.16-2.53,3.37Z"/><path d="M154.12,39.84a3.91,3.91,0,0,1-.07,2.44h-6a5.9,5.9,0,0,1,0-2.44Z"/><path d="M148.05,45.88V43.37h6.07a5,5,0,0,1,0,2.44C152.13,45.94,150.13,45.83,148.05,45.88Z"/><path d="M168.53,33.25a11.92,11.92,0,0,1,2.15,4l-2,1.24c-.67-1.46-1.31-2.83-2-4.32Z"/></g></g></svg>