<svg xmlns="http://www.w3.org/2000/svg" viewBox="0 0 255.75 57.24"><defs><style>.cls-1{opacity:0.6;}</style></defs><g id="圖層_1" data-name="圖層 1"><g class="cls-1"><path d="M0,0H57.28V57.24H0ZM47.68,43.44a6.25,6.25,0,0,0-.61-1.06c-.65-.69-1.31-1.37-2-2a2.47,2.47,0,0,1-.89-2.06c0-6.58.05-13.17,0-19.76a3.37,3.37,0,0,1,1.26-3c.86-.69,1.6-1.54,2.53-2.46a4.45,4.45,0,0,0-.92-.29c-3.12,0-6.23,0-9.35,0-.74,0-.9.44-1.11,1Q34,20.18,31.48,26.54c-.68,1.68-1.37,3.36-2.1,5.15-.17-.28-.27-.4-.34-.55-2.62-5.77-5.26-11.53-7.85-17.32a1.38,1.38,0,0,0-1.49-1c-3,0-6.08,0-9.12,0-.33,0-.67.05-1.23.1a10.23,10.23,0,0,0,.73,1.23C11,15.33,12,16.4,12.84,17.58a3.83,3.83,0,0,1,.74,2q.09,8.28,0,16.57a3.27,3.27,0,0,1-.65,1.8c-1,1.42-2.23,2.75-3.34,4.14a9.36,9.36,0,0,0-.71,1.28h11.8a10.3,10.3,0,0,0-.75-1.32c-1.11-1.38-2.29-2.71-3.35-4.13A3.43,3.43,0,0,1,16,36.09c-.05-4.37,0-8.75,0-13.13,0-.32,0-.64.08-1.22.29.59.44.9.58,1.21q4.49,9.78,9,19.54c.18.39.65.88,1,.89s.8-.51,1-.9c2.09-5.23,4.13-10.48,6.19-15.71.62-1.58,1.26-3.16,1.89-4.73.2,4.44,0,8.82.26,13.18.16,3-.36,5.39-2.94,7.13-.28.19-.38.63-.64,1.09Z"/><path d="M125,44.91H110.37c.89-.9,1.75-1.68,2.49-2.56a2.87,2.87,0,0,0,.72-1.62c.06-6.42.07-12.85.08-19.27,0-.06-.08-.12-.22-.31L103.72,45.5c-3.61-8-7.09-15.78-10.58-23.53L92.9,22v1.11c0,4.61-.08,9.23,0,13.84a6,6,0,0,0,1,2.94c1.07,1.68,2.36,3.23,3.66,5H86.47a28.41,28.41,0,0,1,1.91-2.56,10.2,10.2,0,0,0,2.77-8.06c-.26-4.87,0-9.77-.09-14.66a5.21,5.21,0,0,0-.89-2.48c-.77-1.21-1.72-2.32-2.77-3.69h2.8c2.25,0,4.5,0,6.75,0a1.43,1.43,0,0,1,1.58,1c2.51,5.62,5.07,11.2,7.61,16.8.21.46.43.91.76,1.63.29-.66.5-1.09.68-1.54,2.25-5.64,4.51-11.26,6.73-16.91a1.3,1.3,0,0,1,1.47-1c2.68.05,5.36,0,8,0,.34,0,.68,0,1.29.07-1,1.13-1.91,2-2.66,3.06a3.5,3.5,0,0,0-.72,1.88c0,7.26,0,14.51,0,21.77a2.82,2.82,0,0,0,1,2.37C123.49,43.26,124.18,44.06,125,44.91Z"/><path d="M242,44.92h-9.91c0-1.05,0-2.1,0-3.15,0-3.43.09-6.86,0-10.28a11.86,11.86,0,0,0-.71-3.57,2.63,2.63,0,0,0-3.28-1.63,3,3,0,0,0-2.57,2.89c0,3.86,0,7.73,0,11.59a3.12,3.12,0,0,0,1.31,2.93c.44.32.89.62,1.33.92l-.3.38h-9.62V43.79c0-5.41,0-10.81,0-16.21a3.91,3.91,0,0,0-1.39-3.42,14.8,14.8,0,0,1-1.25-1.35h9.88v3.82c1.7-2.68,3.87-4.26,7.1-4.22s5.29,1.86,6.37,5c.4-.64.69-1.17,1-1.67A7.69,7.69,0,0,1,248,22.53a5.62,5.62,0,0,1,4.56,4.32,36.13,36.13,0,0,1,.76,6.65c.11,2.44,0,4.89-.08,7.33a2.86,2.86,0,0,0,1.13,2.66,13.34,13.34,0,0,1,1.4,1.41h-9.81c0-1.09,0-2.17,0-3.26,0-3.47.09-6.94,0-10.4a11.21,11.21,0,0,0-.79-3.54,2.45,2.45,0,0,0-2.7-1.49,4,4,0,0,0-3.11,1.69,1,1,0,0,0-.1.56c0,4.13.16,8.26.13,12.4a3,3,0,0,0,1.23,2.73A17.31,17.31,0,0,1,242,44.92Z"/><path d="M164.77,41.25c-2.93,4-6.2,5.06-10,3.36a6.94,6.94,0,0,1-3.49-3.24c-2.4-4.82-2.58-9.73.05-14.49,1.88-3.42,5-4.76,8.87-4.42,1.94.18,3.29,1.35,4.57,2.89V22.84c0-.74,0-1.49,0-2.24,0-2.59.66-5.41-2.66-6.9l.29-.29L172,12.27v1.39c0,8.87,0,17.74,0,26.6a3.59,3.59,0,0,0,1.41,3.38c.42.29.8.62,1.2.94l-.18.29h-9.65Zm0-7.91c0-1.93-.07-3.86,0-5.78a2.09,2.09,0,0,0-1.71-2.31c-2-.67-3.94.28-4.91,2.55a15.61,15.61,0,0,0-.85,8.36A12.31,12.31,0,0,0,158.42,40a3.54,3.54,0,0,0,5.15,1.39,2.18,2.18,0,0,0,1.2-2.11C164.69,37.28,164.75,35.31,164.75,33.34Z"/><path d="M202.39,22.72h10v1.43c0,5.48,0,11,0,16.45a3.26,3.26,0,0,0,1.29,2.95c.44.33.81.75,1.41,1.31h-10V41.08L204.9,41l-.56.91a7.14,7.14,0,0,1-7.88,3.21,5.59,5.59,0,0,1-3.71-3.06,13.25,13.25,0,0,1-1.18-6.1c0-2.88,0-5.76.11-8.63a3.39,3.39,0,0,0-1.33-3.19c-.44-.33-.86-.69-1.28-1l.17-.28h9.62c0,.47,0,.93,0,1.38,0,4.22,0,8.44.11,12.66a9.84,9.84,0,0,0,.67,3.21,2.31,2.31,0,0,0,2.87,1.49,3,3,0,0,0,2.62-2.76c0-4.06,0-8.12,0-12.18a3.45,3.45,0,0,0-.71-1.77A23.79,23.79,0,0,0,202.39,22.72Z"/><path d="M133.77,33c.11,3.17.58,6.07,3.55,7.43,3.75,1.71,6.86.36,9.36-2.76a9.18,9.18,0,0,1-4.34,6.44c-4.28,2.44-10.67,1.19-13.81-2.58-3.32-4-3.57-14.17,2.6-17.56a12.11,12.11,0,0,1,11.59-.38c3.51,1.69,4.52,5.33,4.33,8.77,0,.23-.63.61-1,.61-3.63,0-7.26,0-10.89,0Zm0-1.21h6.77c-.29-2.23-.5-4.36-.89-6.46a2.3,2.3,0,0,0-2.26-2.06,2.64,2.64,0,0,0-2.62,1.85A17.09,17.09,0,0,0,133.74,31.81Z"/><path d="M188.42,44.93h-9.91V43.67c0-5.37,0-10.73,0-16.1a4,4,0,0,0-1.46-3.51,13.7,13.7,0,0,1-1.19-1.25h9.92v1.38c0,5.48,0,11,0,16.45a3.32,3.32,0,0,0,1.32,3.06A14.6,14.6,0,0,1,188.42,44.93Z"/><path d="M182.09,19.92a3.9,3.9,0,0,1-3.9-4,4,4,0,0,1,7.92,0A3.91,3.91,0,0,1,182.09,19.92Z"/></g></g></svg>