<svg xmlns="http://www.w3.org/2000/svg" viewBox="0 0 122.1 57.18"><defs><style>.cls-1{opacity:0.5;}</style></defs><g id="圖層_1" data-name="圖層 1"><path class="cls-1" d="M122.08,55.05q0-3.73-.06-7.47c0-.28-.09-.38-.38-.37-1.15,0-2.3,0-3.45,0a.65.65,0,0,1-.58-.27c-.81-1-1.63-2-2.45-3L102.08,28.15a.37.37,0,0,1,0-.57q3.61-4.51,7.22-9c2.46-3.09,4.93-6.17,7.38-9.27a.72.72,0,0,1,.63-.3c1.32,0,2.64,0,4,0,.43,0,.43,0,.43-.43q0-4.26-.07-8.52h-2a2.58,2.58,0,0,1-.4,0L111,.11,99.81.19c-.43,0-.43,0-.42.43l.06,8.06c0,.45,0,.45.47.45l4.17-.05h.41L95.58,20.27l-9.06-11,0-.08h.33c1.43,0,2.85,0,4.27,0,.3,0,.39-.1.38-.4,0-1.36,0-2.73,0-4.1s0-2.72,0-4.08c0-.27-.08-.39-.37-.37l-1.55,0L81.09.36l-5.85,0c-.14,0-.29,0-.43,0l-5.17,0-3.08,0L60.4.52c-.48,0-.48,0-.48.47,0,2.68,0,5.37.07,8,0,.42,0,.42.43.41,1.71,0,3.41,0,5.11-.06.29,0,.39.07.39.38,0,2.3,0,4.6.06,6.9,0,.11,0,.22,0,.37-.13-.08-.22-.12-.3-.18a21.72,21.72,0,0,0-27.76,3.26c-.11.12-.23.22-.35.34l-.08.14h0l.08-.14c-.07-.08-.13-.17-.2-.24a20.56,20.56,0,0,0-5.78-4.37,21,21,0,0,0-13.57-2A21,21,0,0,0,5,21.51,21.11,21.11,0,0,0,.63,40.37,21.11,21.11,0,0,0,11.79,54.7,21.11,21.11,0,0,0,24.54,57a20.53,20.53,0,0,0,11.22-5c.72-.63,1.38-1.34,2.06-2l.28.29a21.9,21.9,0,0,0,16.72,6.61,21.28,21.28,0,0,0,4.42-.67A20.63,20.63,0,0,0,66,53l.22-.12c0,.13,0,.23,0,.33,0,1,0,2.09,0,3.14,0,.42,0,.42.41.42h3.21c.65,0,1.3,0,2,0h1.84l8.42-.07,3.8,0,5.57,0c.41,0,.41,0,.41-.41,0-2.78-.05-5.56-.06-8.34,0-.32-.09-.41-.4-.4-1.59,0-3.18,0-4.76,0h-.39l0-.08,9.44-11.83,9.73,11.78h-.57l-4.66,0c-.44,0-.44,0-.44.46l.06,8c0,.7,0,.7.69.68h.18l7.1-.06,7.69-.06c2.06,0,4.13,0,6.19,0,.43,0,.43,0,.42-.44S122.08,55.34,122.08,55.05ZM32.3,38.76h0l-2.9,0ZM9.65,31.38c1.75-4.8,5.11-7.77,10.16-8.59a12.14,12.14,0,0,1,12.61,5.9,1.33,1.33,0,0,1,.18,1.16c-.17.55-.25,1.13-.37,1.7H26.72c-2.87,0-5.75,0-8.62.07L10,31.71H9.56A2.93,2.93,0,0,1,9.65,31.38Zm24,12.37c-.76,0-1.52,0-2.27,0A.76.76,0,0,0,31,44a12.05,12.05,0,0,1-4.8,3.28,12.22,12.22,0,0,1-8.47.12,12.54,12.54,0,0,1-7.95-7.85l-.12-.38s0-.08,0-.17c.26,0,.5,0,.74,0l5.88,0,12.44-.11h.22c1,0,2,0,3,0,.3,0,.41.09.47.38a20.44,20.44,0,0,0,1.23,4.2,2.21,2.21,0,0,1,.08.37l.13.11.19-.07-.19.07ZM64.15,42a11.87,11.87,0,0,1-9,5.68,12.63,12.63,0,0,1-12.95-7c-.3-.59-.52-1.23-.83-2h.92c.63,0,.64,0,.71-.63a22.93,22.93,0,0,0-.61-8.61c0-.07,0-.15-.07-.23v-.06c.51-.75,1-1.54,1.53-2.23a12.33,12.33,0,0,1,7.76-4.43A12,12,0,0,1,61,24.77,12.26,12.26,0,0,1,66,32.92,12.68,12.68,0,0,1,64.15,42Zm25.1-13.82L75.48,45.47l-.21.24c0-.2-.06-.34-.08-.49,0-1.59,0-3.17,0-4.76,0-3.2-.05-6.4-.08-9.61L75,23.3,75,15.83l-.06-4.63v-.67l.08,0,1,1.18,9.05,11,4.2,5.08A.33.33,0,0,1,89.25,28.22Z"/></g></svg>