<?xml version="1.0" encoding="iso-8859-1"?>
<!-- Generator: Adobe Illustrator 19.0.0, SVG Export Plug-In . SVG Version: 6.00 Build 0)  -->
<svg version="1.1" id="&#x5716;&#x5C64;_1" xmlns="http://www.w3.org/2000/svg" xmlns:xlink="http://www.w3.org/1999/xlink" x="0px"
	 y="0px" viewBox="0 -375.961 500 789.961" style="enable-background:new 0 -375.961 500 789.961;" xml:space="preserve">
<path id="path_1" style="fill:#EAC18B;" d="M173.275,100.876L20.983,203.583c-3.715,2.506-9.541,2.736-12.946,0.512l-5.64-3.683
	c-3.405-2.224-3.152-6.093,0.563-8.599L155.252,89.107c3.715-2.506,9.541-2.736,12.946-0.512l5.64,3.683
	C177.244,94.501,176.99,98.371,173.275,100.876z"/>
<path id="path_2" style="fill:#EAC18B;" d="M105.6,178.666l-60.398,40.733c-3.715,2.506-9.541,2.736-12.946,0.512l-5.64-3.683
	c-3.405-2.224-3.152-6.093,0.563-8.599l60.398-40.733c3.715-2.506,9.541-2.736,12.946-0.512l5.64,3.683
	C109.569,172.291,109.315,176.16,105.6,178.666z"/>
<path id="path_3" style="fill:#F4E3BD;" d="M305.744,187.384L153.452,290.091c-3.715,2.506-9.541,2.736-12.946,0.512l-68.099-44.471
	c-3.405-2.224-3.152-6.093,0.563-8.599l152.293-102.707c3.715-2.506,9.541-2.736,12.946-0.512l68.099,44.471
	C309.713,181.009,309.459,184.878,305.744,187.384z"/>
<path id="path_4" style="fill:#F2A51D;" d="M267.508,242.763l-91.763,61.886c-3.715,2.506-9.541,2.736-12.946,0.512l0,0
	c-3.405-2.224-3.152-6.093,0.563-8.599l91.763-61.886c3.715-2.506,9.541-2.736,12.946-0.512l0,0
	C271.477,236.388,271.223,240.257,267.508,242.763z"/>
<path id="path_5" style="fill:#E8BE6B;" d="M310.05,214.072L310.05,214.072c-3.715,2.506-9.541,2.736-12.946,0.512l0,0
	c-3.405-2.224-3.152-6.093,0.563-8.599l0,0c3.715-2.506,9.541-2.736,12.946-0.512l0,0
	C314.019,207.697,313.766,211.566,310.05,214.072z"/>
<path id="path_6" style="fill:#E8BE6B;" d="M328.036,201.942L328.036,201.942c-3.715,2.506-9.541,2.736-12.946,0.512l0,0
	c-3.405-2.224-3.152-6.093,0.563-8.599l0,0c3.715-2.506,9.541-2.736,12.946-0.512l0,0
	C332.005,195.567,331.752,199.436,328.036,201.942z"/>
<path id="path_7" style="fill:#CCCAC6;" d="M347.003,209.844L187.956,317.106c-1.865,1.258-4.763,1.373-6.473,0.256l0,0
	c-1.71-1.117-1.584-3.041,0.282-4.299l159.047-107.262c1.865-1.258,4.763-1.373,6.473-0.256l0,0
	C348.994,206.661,348.868,208.586,347.003,209.844z"/>
<path id="path_8" style="fill:#CCCAC6;" d="M359.583,218.06L200.536,325.322c-1.865,1.258-4.763,1.373-6.473,0.256l0,0
	c-1.71-1.117-1.584-3.041,0.282-4.299l159.047-107.263c1.865-1.258,4.763-1.373,6.473-0.256l0,0
	C361.575,214.877,361.448,216.802,359.583,218.06z"/>
<path id="path_9" style="fill:#CCCAC6;" d="M337.512,249.645l-124.395,83.893c-1.865,1.258-4.763,1.373-6.473,0.256l0,0
	c-1.71-1.117-1.584-3.041,0.282-4.299l124.395-83.893c1.865-1.258,4.763-1.373,6.473-0.256l0,0
	C339.504,246.462,339.378,248.387,337.512,249.645z"/>
<path id="path_10" style="fill:#F4E3BD;" d="M470.069,294.695L317.777,397.402c-3.715,2.506-9.541,2.736-12.946,0.512
	l-68.099-44.471c-3.405-2.224-3.152-6.093,0.563-8.599l152.292-102.707c3.715-2.506,9.541-2.736,12.946-0.512l68.099,44.471
	C474.038,288.32,473.784,292.19,470.069,294.695z"/>
<path id="path_11" style="fill:#F2A51D;" d="M392.135,376.846l-52.065,35.113c-3.715,2.506-9.541,2.736-12.946,0.512l0,0
	c-3.405-2.224-3.152-6.093,0.563-8.599l52.065-35.113c3.715-2.506,9.541-2.736,12.946-0.512l0,0
	C396.104,370.471,395.85,374.341,392.135,376.846z"/>
<path id="path_12" style="fill:#E8BE6B;" d="M492.362,309.253L492.362,309.253c-3.715,2.506-9.541,2.736-12.946,0.512l0,0
	c-3.405-2.224-3.152-6.093,0.563-8.599l0,0c3.715-2.506,9.541-2.736,12.946-0.512l0,0
	C496.33,302.878,496.077,306.747,492.362,309.253z"/>
</svg>
